G04 EAGLE Gerber RS-274X export*
G75*
%MOMM*%
%FSLAX34Y34*%
%LPD*%
%INSilkscreen Bottom*%
%IPPOS*%
%AMOC8*
5,1,8,0,0,1.08239X$1,22.5*%
G01*
%ADD10C,0.203200*%


D10*
X598658Y99798D02*
X602496Y99798D01*
X602619Y99800D01*
X602742Y99806D01*
X602865Y99816D01*
X602987Y99830D01*
X603109Y99847D01*
X603230Y99869D01*
X603350Y99894D01*
X603470Y99924D01*
X603588Y99957D01*
X603705Y99994D01*
X603822Y100034D01*
X603936Y100078D01*
X604050Y100126D01*
X604161Y100178D01*
X604271Y100233D01*
X604379Y100292D01*
X604486Y100354D01*
X604590Y100419D01*
X604692Y100488D01*
X604792Y100560D01*
X604889Y100635D01*
X604984Y100714D01*
X605076Y100795D01*
X605166Y100879D01*
X605253Y100966D01*
X605337Y101056D01*
X605418Y101148D01*
X605497Y101243D01*
X605572Y101340D01*
X605644Y101440D01*
X605713Y101542D01*
X605778Y101646D01*
X605840Y101753D01*
X605899Y101861D01*
X605954Y101971D01*
X606006Y102082D01*
X606054Y102196D01*
X606098Y102311D01*
X606138Y102427D01*
X606175Y102544D01*
X606208Y102662D01*
X606238Y102782D01*
X606263Y102902D01*
X606285Y103023D01*
X606302Y103145D01*
X606316Y103267D01*
X606326Y103390D01*
X606332Y103513D01*
X606334Y103636D01*
X606335Y103636D02*
X606335Y113232D01*
X606334Y113232D02*
X606332Y113355D01*
X606326Y113478D01*
X606316Y113601D01*
X606302Y113723D01*
X606285Y113845D01*
X606263Y113966D01*
X606238Y114086D01*
X606208Y114206D01*
X606175Y114324D01*
X606138Y114441D01*
X606098Y114557D01*
X606054Y114672D01*
X606006Y114786D01*
X605954Y114897D01*
X605899Y115007D01*
X605840Y115115D01*
X605778Y115222D01*
X605713Y115326D01*
X605644Y115428D01*
X605572Y115528D01*
X605497Y115625D01*
X605418Y115720D01*
X605337Y115812D01*
X605253Y115902D01*
X605166Y115989D01*
X605076Y116073D01*
X604984Y116154D01*
X604889Y116233D01*
X604792Y116308D01*
X604692Y116380D01*
X604590Y116449D01*
X604486Y116514D01*
X604379Y116576D01*
X604271Y116635D01*
X604161Y116690D01*
X604050Y116741D01*
X603936Y116789D01*
X603822Y116834D01*
X603705Y116874D01*
X603588Y116911D01*
X603470Y116944D01*
X603350Y116974D01*
X603230Y116999D01*
X603109Y117021D01*
X602987Y117038D01*
X602865Y117052D01*
X602742Y117062D01*
X602619Y117068D01*
X602496Y117070D01*
X598658Y117070D01*
X590884Y117070D02*
X590884Y99798D01*
X588965Y99798D02*
X592804Y99798D01*
X592804Y117070D02*
X588965Y117070D01*
X581619Y117070D02*
X581619Y99798D01*
X581619Y117070D02*
X576822Y117070D01*
X576684Y117068D01*
X576546Y117062D01*
X576408Y117052D01*
X576270Y117038D01*
X576133Y117020D01*
X575996Y116998D01*
X575861Y116973D01*
X575725Y116943D01*
X575591Y116909D01*
X575458Y116872D01*
X575326Y116831D01*
X575195Y116786D01*
X575066Y116737D01*
X574938Y116685D01*
X574812Y116629D01*
X574687Y116569D01*
X574564Y116505D01*
X574443Y116439D01*
X574324Y116368D01*
X574207Y116295D01*
X574092Y116218D01*
X573979Y116137D01*
X573869Y116054D01*
X573762Y115967D01*
X573656Y115877D01*
X573554Y115785D01*
X573454Y115689D01*
X573357Y115591D01*
X573263Y115489D01*
X573171Y115385D01*
X573083Y115279D01*
X572998Y115170D01*
X572916Y115059D01*
X572837Y114945D01*
X572762Y114829D01*
X572690Y114711D01*
X572621Y114591D01*
X572556Y114469D01*
X572495Y114345D01*
X572437Y114219D01*
X572383Y114092D01*
X572332Y113963D01*
X572285Y113833D01*
X572242Y113702D01*
X572203Y113569D01*
X572167Y113436D01*
X572136Y113301D01*
X572108Y113166D01*
X572084Y113029D01*
X572064Y112893D01*
X572048Y112755D01*
X572036Y112617D01*
X572028Y112479D01*
X572024Y112341D01*
X572024Y112203D01*
X572028Y112065D01*
X572036Y111927D01*
X572048Y111789D01*
X572064Y111651D01*
X572084Y111515D01*
X572108Y111378D01*
X572136Y111243D01*
X572167Y111108D01*
X572203Y110975D01*
X572242Y110842D01*
X572285Y110711D01*
X572332Y110581D01*
X572383Y110452D01*
X572437Y110325D01*
X572495Y110199D01*
X572556Y110075D01*
X572621Y109953D01*
X572690Y109833D01*
X572762Y109715D01*
X572837Y109599D01*
X572916Y109485D01*
X572998Y109374D01*
X573083Y109265D01*
X573171Y109159D01*
X573263Y109055D01*
X573357Y108953D01*
X573454Y108855D01*
X573554Y108759D01*
X573656Y108667D01*
X573762Y108577D01*
X573869Y108490D01*
X573979Y108407D01*
X574092Y108326D01*
X574207Y108249D01*
X574324Y108176D01*
X574443Y108105D01*
X574564Y108039D01*
X574687Y107975D01*
X574812Y107915D01*
X574938Y107859D01*
X575066Y107807D01*
X575195Y107758D01*
X575326Y107713D01*
X575458Y107672D01*
X575591Y107635D01*
X575725Y107601D01*
X575861Y107571D01*
X575996Y107546D01*
X576133Y107524D01*
X576270Y107506D01*
X576408Y107492D01*
X576546Y107482D01*
X576684Y107476D01*
X576822Y107474D01*
X581619Y107474D01*
X575862Y107474D02*
X572024Y99798D01*
X561179Y99798D02*
X557340Y99798D01*
X561179Y99798D02*
X561302Y99800D01*
X561425Y99806D01*
X561548Y99816D01*
X561670Y99830D01*
X561792Y99847D01*
X561913Y99869D01*
X562033Y99894D01*
X562153Y99924D01*
X562271Y99957D01*
X562388Y99994D01*
X562505Y100034D01*
X562619Y100078D01*
X562733Y100126D01*
X562844Y100178D01*
X562954Y100233D01*
X563062Y100292D01*
X563169Y100354D01*
X563273Y100419D01*
X563375Y100488D01*
X563475Y100560D01*
X563572Y100635D01*
X563667Y100714D01*
X563759Y100795D01*
X563849Y100879D01*
X563936Y100966D01*
X564020Y101056D01*
X564101Y101148D01*
X564180Y101243D01*
X564255Y101340D01*
X564327Y101440D01*
X564396Y101542D01*
X564461Y101646D01*
X564523Y101753D01*
X564582Y101861D01*
X564637Y101971D01*
X564689Y102082D01*
X564737Y102196D01*
X564781Y102311D01*
X564821Y102427D01*
X564858Y102544D01*
X564891Y102662D01*
X564921Y102782D01*
X564946Y102902D01*
X564968Y103023D01*
X564985Y103145D01*
X564999Y103267D01*
X565009Y103390D01*
X565015Y103513D01*
X565017Y103636D01*
X565017Y113232D01*
X565015Y113355D01*
X565009Y113478D01*
X564999Y113601D01*
X564985Y113723D01*
X564968Y113845D01*
X564946Y113966D01*
X564921Y114086D01*
X564891Y114206D01*
X564858Y114324D01*
X564821Y114441D01*
X564781Y114557D01*
X564737Y114672D01*
X564689Y114786D01*
X564637Y114897D01*
X564582Y115007D01*
X564523Y115115D01*
X564461Y115222D01*
X564396Y115326D01*
X564327Y115428D01*
X564255Y115528D01*
X564180Y115625D01*
X564101Y115720D01*
X564020Y115812D01*
X563936Y115902D01*
X563849Y115989D01*
X563759Y116073D01*
X563667Y116154D01*
X563572Y116233D01*
X563475Y116308D01*
X563375Y116380D01*
X563273Y116449D01*
X563169Y116514D01*
X563062Y116576D01*
X562954Y116635D01*
X562844Y116690D01*
X562733Y116741D01*
X562619Y116789D01*
X562505Y116834D01*
X562388Y116874D01*
X562271Y116911D01*
X562153Y116944D01*
X562033Y116974D01*
X561913Y116999D01*
X561792Y117021D01*
X561670Y117038D01*
X561548Y117052D01*
X561425Y117062D01*
X561302Y117068D01*
X561179Y117070D01*
X557340Y117070D01*
X550421Y117070D02*
X550421Y99798D01*
X542745Y99798D01*
X535904Y99798D02*
X528227Y99798D01*
X535904Y99798D02*
X535904Y117070D01*
X528227Y117070D01*
X530147Y109394D02*
X535904Y109394D01*
X512248Y117070D02*
X512248Y99798D01*
X512248Y117070D02*
X507450Y117070D01*
X507312Y117068D01*
X507174Y117062D01*
X507036Y117052D01*
X506898Y117038D01*
X506761Y117020D01*
X506624Y116998D01*
X506489Y116973D01*
X506353Y116943D01*
X506219Y116909D01*
X506086Y116872D01*
X505954Y116831D01*
X505823Y116786D01*
X505694Y116737D01*
X505566Y116685D01*
X505440Y116629D01*
X505315Y116569D01*
X505192Y116505D01*
X505071Y116439D01*
X504952Y116368D01*
X504835Y116295D01*
X504720Y116218D01*
X504607Y116137D01*
X504497Y116054D01*
X504390Y115967D01*
X504284Y115877D01*
X504182Y115785D01*
X504082Y115689D01*
X503985Y115591D01*
X503891Y115489D01*
X503799Y115385D01*
X503711Y115279D01*
X503626Y115170D01*
X503544Y115059D01*
X503465Y114945D01*
X503390Y114829D01*
X503318Y114711D01*
X503249Y114591D01*
X503184Y114469D01*
X503123Y114345D01*
X503065Y114219D01*
X503011Y114092D01*
X502960Y113963D01*
X502913Y113833D01*
X502870Y113702D01*
X502831Y113569D01*
X502795Y113436D01*
X502764Y113301D01*
X502736Y113166D01*
X502712Y113029D01*
X502692Y112893D01*
X502676Y112755D01*
X502664Y112617D01*
X502656Y112479D01*
X502652Y112341D01*
X502652Y112203D01*
X502656Y112065D01*
X502664Y111927D01*
X502676Y111789D01*
X502692Y111651D01*
X502712Y111515D01*
X502736Y111378D01*
X502764Y111243D01*
X502795Y111108D01*
X502831Y110975D01*
X502870Y110842D01*
X502913Y110711D01*
X502960Y110581D01*
X503011Y110452D01*
X503065Y110325D01*
X503123Y110199D01*
X503184Y110075D01*
X503249Y109953D01*
X503318Y109833D01*
X503390Y109715D01*
X503465Y109599D01*
X503544Y109485D01*
X503626Y109374D01*
X503711Y109265D01*
X503799Y109159D01*
X503891Y109055D01*
X503985Y108953D01*
X504082Y108855D01*
X504182Y108759D01*
X504284Y108667D01*
X504390Y108577D01*
X504497Y108490D01*
X504607Y108407D01*
X504720Y108326D01*
X504835Y108249D01*
X504952Y108176D01*
X505071Y108105D01*
X505192Y108039D01*
X505315Y107975D01*
X505440Y107915D01*
X505566Y107859D01*
X505694Y107807D01*
X505823Y107758D01*
X505954Y107713D01*
X506086Y107672D01*
X506219Y107635D01*
X506353Y107601D01*
X506489Y107571D01*
X506624Y107546D01*
X506761Y107524D01*
X506898Y107506D01*
X507036Y107492D01*
X507174Y107482D01*
X507312Y107476D01*
X507450Y107474D01*
X512248Y107474D01*
X497256Y99798D02*
X491498Y117070D01*
X485741Y99798D01*
X487180Y104116D02*
X495816Y104116D01*
X478883Y99798D02*
X478883Y117070D01*
X474085Y117070D01*
X473947Y117068D01*
X473809Y117062D01*
X473671Y117052D01*
X473533Y117038D01*
X473396Y117020D01*
X473259Y116998D01*
X473124Y116973D01*
X472988Y116943D01*
X472854Y116909D01*
X472721Y116872D01*
X472589Y116831D01*
X472458Y116786D01*
X472329Y116737D01*
X472201Y116685D01*
X472075Y116629D01*
X471950Y116569D01*
X471827Y116505D01*
X471706Y116439D01*
X471587Y116368D01*
X471470Y116295D01*
X471355Y116218D01*
X471242Y116137D01*
X471132Y116054D01*
X471025Y115967D01*
X470919Y115877D01*
X470817Y115785D01*
X470717Y115689D01*
X470620Y115591D01*
X470526Y115489D01*
X470434Y115385D01*
X470346Y115279D01*
X470261Y115170D01*
X470179Y115059D01*
X470100Y114945D01*
X470025Y114829D01*
X469953Y114711D01*
X469884Y114591D01*
X469819Y114469D01*
X469758Y114345D01*
X469700Y114219D01*
X469646Y114092D01*
X469595Y113963D01*
X469548Y113833D01*
X469505Y113702D01*
X469466Y113569D01*
X469430Y113436D01*
X469399Y113301D01*
X469371Y113166D01*
X469347Y113029D01*
X469327Y112893D01*
X469311Y112755D01*
X469299Y112617D01*
X469291Y112479D01*
X469287Y112341D01*
X469287Y112203D01*
X469291Y112065D01*
X469299Y111927D01*
X469311Y111789D01*
X469327Y111651D01*
X469347Y111515D01*
X469371Y111378D01*
X469399Y111243D01*
X469430Y111108D01*
X469466Y110975D01*
X469505Y110842D01*
X469548Y110711D01*
X469595Y110581D01*
X469646Y110452D01*
X469700Y110325D01*
X469758Y110199D01*
X469819Y110075D01*
X469884Y109953D01*
X469953Y109833D01*
X470025Y109715D01*
X470100Y109599D01*
X470179Y109485D01*
X470261Y109374D01*
X470346Y109265D01*
X470434Y109159D01*
X470526Y109055D01*
X470620Y108953D01*
X470717Y108855D01*
X470817Y108759D01*
X470919Y108667D01*
X471025Y108577D01*
X471132Y108490D01*
X471242Y108407D01*
X471355Y108326D01*
X471470Y108249D01*
X471587Y108176D01*
X471706Y108105D01*
X471827Y108039D01*
X471950Y107975D01*
X472075Y107915D01*
X472201Y107859D01*
X472329Y107807D01*
X472458Y107758D01*
X472589Y107713D01*
X472721Y107672D01*
X472854Y107635D01*
X472988Y107601D01*
X473124Y107571D01*
X473259Y107546D01*
X473396Y107524D01*
X473533Y107506D01*
X473671Y107492D01*
X473809Y107482D01*
X473947Y107476D01*
X474085Y107474D01*
X478883Y107474D01*
X473126Y107474D02*
X469288Y99798D01*
X463197Y99798D02*
X457439Y117070D01*
X451682Y99798D01*
X453121Y104116D02*
X461757Y104116D01*
X444893Y99798D02*
X444893Y117070D01*
X444893Y99798D02*
X437217Y99798D01*
X430376Y99798D02*
X430376Y117070D01*
X430376Y99798D02*
X422700Y99798D01*
X415859Y99798D02*
X408183Y99798D01*
X415859Y99798D02*
X415859Y117070D01*
X408183Y117070D01*
X410102Y109394D02*
X415859Y109394D01*
X401342Y117070D02*
X401342Y99798D01*
X393666Y99798D01*
X585732Y88114D02*
X585732Y70842D01*
X579974Y78518D02*
X585732Y88114D01*
X579974Y78518D02*
X574217Y88114D01*
X574217Y70842D01*
X567306Y70842D02*
X561549Y88114D01*
X555792Y70842D01*
X557231Y75160D02*
X565867Y75160D01*
X549038Y70842D02*
X549038Y88114D01*
X539442Y70842D01*
X539442Y88114D01*
X530281Y88114D02*
X530281Y70842D01*
X528362Y70842D02*
X532201Y70842D01*
X532201Y88114D02*
X528362Y88114D01*
X520880Y88114D02*
X520880Y70842D01*
X520880Y88114D02*
X516083Y88114D01*
X515945Y88112D01*
X515807Y88106D01*
X515669Y88096D01*
X515531Y88082D01*
X515394Y88064D01*
X515257Y88042D01*
X515122Y88017D01*
X514986Y87987D01*
X514852Y87953D01*
X514719Y87916D01*
X514587Y87875D01*
X514456Y87830D01*
X514327Y87781D01*
X514199Y87729D01*
X514073Y87673D01*
X513948Y87613D01*
X513825Y87549D01*
X513704Y87483D01*
X513585Y87412D01*
X513468Y87339D01*
X513353Y87262D01*
X513240Y87181D01*
X513130Y87098D01*
X513023Y87011D01*
X512917Y86921D01*
X512815Y86829D01*
X512715Y86733D01*
X512618Y86635D01*
X512524Y86533D01*
X512432Y86429D01*
X512344Y86323D01*
X512259Y86214D01*
X512177Y86103D01*
X512098Y85989D01*
X512023Y85873D01*
X511951Y85755D01*
X511882Y85635D01*
X511817Y85513D01*
X511756Y85389D01*
X511698Y85263D01*
X511644Y85136D01*
X511593Y85007D01*
X511546Y84877D01*
X511503Y84746D01*
X511464Y84613D01*
X511428Y84480D01*
X511397Y84345D01*
X511369Y84210D01*
X511345Y84073D01*
X511325Y83937D01*
X511309Y83799D01*
X511297Y83661D01*
X511289Y83523D01*
X511285Y83385D01*
X511285Y83247D01*
X511289Y83109D01*
X511297Y82971D01*
X511309Y82833D01*
X511325Y82695D01*
X511345Y82559D01*
X511369Y82422D01*
X511397Y82287D01*
X511428Y82152D01*
X511464Y82019D01*
X511503Y81886D01*
X511546Y81755D01*
X511593Y81625D01*
X511644Y81496D01*
X511698Y81369D01*
X511756Y81243D01*
X511817Y81119D01*
X511882Y80997D01*
X511951Y80877D01*
X512023Y80759D01*
X512098Y80643D01*
X512177Y80529D01*
X512259Y80418D01*
X512344Y80309D01*
X512432Y80203D01*
X512524Y80099D01*
X512618Y79997D01*
X512715Y79899D01*
X512815Y79803D01*
X512917Y79711D01*
X513023Y79621D01*
X513130Y79534D01*
X513240Y79451D01*
X513353Y79370D01*
X513468Y79293D01*
X513585Y79220D01*
X513704Y79149D01*
X513825Y79083D01*
X513948Y79019D01*
X514073Y78959D01*
X514199Y78903D01*
X514327Y78851D01*
X514456Y78802D01*
X514587Y78757D01*
X514719Y78716D01*
X514852Y78679D01*
X514986Y78645D01*
X515122Y78615D01*
X515257Y78590D01*
X515394Y78568D01*
X515531Y78550D01*
X515669Y78536D01*
X515807Y78526D01*
X515945Y78520D01*
X516083Y78518D01*
X520880Y78518D01*
X504370Y75640D02*
X504370Y88114D01*
X504370Y75640D02*
X504368Y75502D01*
X504362Y75364D01*
X504352Y75226D01*
X504338Y75088D01*
X504320Y74951D01*
X504298Y74814D01*
X504273Y74679D01*
X504243Y74543D01*
X504209Y74409D01*
X504172Y74276D01*
X504131Y74144D01*
X504086Y74013D01*
X504037Y73884D01*
X503985Y73756D01*
X503929Y73630D01*
X503869Y73505D01*
X503805Y73382D01*
X503739Y73261D01*
X503668Y73142D01*
X503595Y73025D01*
X503518Y72910D01*
X503437Y72797D01*
X503354Y72687D01*
X503267Y72580D01*
X503177Y72474D01*
X503085Y72372D01*
X502989Y72272D01*
X502891Y72175D01*
X502789Y72081D01*
X502685Y71989D01*
X502579Y71901D01*
X502470Y71816D01*
X502359Y71734D01*
X502245Y71655D01*
X502129Y71580D01*
X502011Y71508D01*
X501891Y71439D01*
X501769Y71374D01*
X501645Y71313D01*
X501519Y71255D01*
X501392Y71201D01*
X501263Y71150D01*
X501133Y71103D01*
X501002Y71060D01*
X500869Y71021D01*
X500736Y70985D01*
X500601Y70954D01*
X500466Y70926D01*
X500329Y70902D01*
X500193Y70882D01*
X500055Y70866D01*
X499917Y70854D01*
X499779Y70846D01*
X499641Y70842D01*
X499503Y70842D01*
X499365Y70846D01*
X499227Y70854D01*
X499089Y70866D01*
X498951Y70882D01*
X498815Y70902D01*
X498678Y70926D01*
X498543Y70954D01*
X498408Y70985D01*
X498275Y71021D01*
X498142Y71060D01*
X498011Y71103D01*
X497881Y71150D01*
X497752Y71201D01*
X497625Y71255D01*
X497499Y71313D01*
X497375Y71374D01*
X497253Y71439D01*
X497133Y71508D01*
X497015Y71580D01*
X496899Y71655D01*
X496785Y71734D01*
X496674Y71816D01*
X496565Y71901D01*
X496459Y71989D01*
X496355Y72081D01*
X496253Y72175D01*
X496155Y72272D01*
X496059Y72372D01*
X495967Y72474D01*
X495877Y72580D01*
X495790Y72687D01*
X495707Y72797D01*
X495626Y72910D01*
X495549Y73025D01*
X495476Y73142D01*
X495405Y73261D01*
X495339Y73382D01*
X495275Y73505D01*
X495215Y73630D01*
X495159Y73756D01*
X495107Y73884D01*
X495058Y74013D01*
X495013Y74144D01*
X494972Y74276D01*
X494935Y74409D01*
X494901Y74543D01*
X494871Y74679D01*
X494846Y74814D01*
X494824Y74951D01*
X494806Y75088D01*
X494792Y75226D01*
X494782Y75364D01*
X494776Y75502D01*
X494774Y75640D01*
X494775Y75640D02*
X494775Y88114D01*
X486468Y88114D02*
X486468Y70842D01*
X478791Y70842D01*
X473504Y70842D02*
X467746Y88114D01*
X461989Y70842D01*
X463428Y75160D02*
X472064Y75160D01*
X452113Y70842D02*
X452113Y88114D01*
X456910Y88114D02*
X447315Y88114D01*
X441277Y83316D02*
X441277Y75640D01*
X441277Y83316D02*
X441275Y83454D01*
X441269Y83592D01*
X441259Y83730D01*
X441245Y83868D01*
X441227Y84005D01*
X441205Y84142D01*
X441180Y84277D01*
X441150Y84413D01*
X441116Y84547D01*
X441079Y84680D01*
X441038Y84812D01*
X440993Y84943D01*
X440944Y85072D01*
X440892Y85200D01*
X440836Y85326D01*
X440776Y85451D01*
X440712Y85574D01*
X440646Y85695D01*
X440575Y85814D01*
X440502Y85931D01*
X440425Y86046D01*
X440344Y86159D01*
X440261Y86269D01*
X440174Y86376D01*
X440084Y86482D01*
X439992Y86584D01*
X439896Y86684D01*
X439798Y86781D01*
X439696Y86875D01*
X439592Y86967D01*
X439486Y87055D01*
X439377Y87140D01*
X439266Y87222D01*
X439152Y87301D01*
X439036Y87376D01*
X438918Y87448D01*
X438798Y87517D01*
X438676Y87582D01*
X438552Y87643D01*
X438426Y87701D01*
X438299Y87755D01*
X438170Y87806D01*
X438040Y87853D01*
X437909Y87896D01*
X437776Y87935D01*
X437643Y87971D01*
X437508Y88002D01*
X437373Y88030D01*
X437236Y88054D01*
X437100Y88074D01*
X436962Y88090D01*
X436824Y88102D01*
X436686Y88110D01*
X436548Y88114D01*
X436410Y88114D01*
X436272Y88110D01*
X436134Y88102D01*
X435996Y88090D01*
X435858Y88074D01*
X435722Y88054D01*
X435585Y88030D01*
X435450Y88002D01*
X435315Y87971D01*
X435182Y87935D01*
X435049Y87896D01*
X434918Y87853D01*
X434788Y87806D01*
X434659Y87755D01*
X434532Y87701D01*
X434406Y87643D01*
X434282Y87582D01*
X434160Y87517D01*
X434040Y87448D01*
X433922Y87376D01*
X433806Y87301D01*
X433692Y87222D01*
X433581Y87140D01*
X433472Y87055D01*
X433366Y86967D01*
X433262Y86875D01*
X433160Y86781D01*
X433062Y86684D01*
X432966Y86584D01*
X432874Y86482D01*
X432784Y86376D01*
X432697Y86269D01*
X432614Y86159D01*
X432533Y86046D01*
X432456Y85931D01*
X432383Y85814D01*
X432312Y85695D01*
X432246Y85574D01*
X432182Y85451D01*
X432122Y85326D01*
X432066Y85200D01*
X432014Y85072D01*
X431965Y84943D01*
X431920Y84812D01*
X431879Y84680D01*
X431842Y84547D01*
X431808Y84413D01*
X431778Y84277D01*
X431753Y84142D01*
X431731Y84005D01*
X431713Y83868D01*
X431699Y83730D01*
X431689Y83592D01*
X431683Y83454D01*
X431681Y83316D01*
X431681Y75640D01*
X431683Y75502D01*
X431689Y75364D01*
X431699Y75226D01*
X431713Y75088D01*
X431731Y74951D01*
X431753Y74814D01*
X431778Y74679D01*
X431808Y74543D01*
X431842Y74409D01*
X431879Y74276D01*
X431920Y74144D01*
X431965Y74013D01*
X432014Y73884D01*
X432066Y73756D01*
X432122Y73630D01*
X432182Y73505D01*
X432246Y73382D01*
X432312Y73261D01*
X432383Y73142D01*
X432456Y73025D01*
X432533Y72910D01*
X432614Y72797D01*
X432697Y72687D01*
X432784Y72580D01*
X432874Y72474D01*
X432966Y72372D01*
X433062Y72272D01*
X433160Y72175D01*
X433262Y72081D01*
X433366Y71989D01*
X433472Y71901D01*
X433581Y71816D01*
X433692Y71734D01*
X433806Y71655D01*
X433922Y71580D01*
X434040Y71508D01*
X434160Y71439D01*
X434282Y71374D01*
X434406Y71313D01*
X434532Y71255D01*
X434659Y71201D01*
X434788Y71150D01*
X434918Y71103D01*
X435049Y71060D01*
X435182Y71021D01*
X435315Y70985D01*
X435450Y70954D01*
X435585Y70926D01*
X435722Y70902D01*
X435858Y70882D01*
X435996Y70866D01*
X436134Y70854D01*
X436272Y70846D01*
X436410Y70842D01*
X436548Y70842D01*
X436686Y70846D01*
X436824Y70854D01*
X436962Y70866D01*
X437100Y70882D01*
X437236Y70902D01*
X437373Y70926D01*
X437508Y70954D01*
X437643Y70985D01*
X437776Y71021D01*
X437909Y71060D01*
X438040Y71103D01*
X438170Y71150D01*
X438299Y71201D01*
X438426Y71255D01*
X438552Y71313D01*
X438676Y71374D01*
X438798Y71439D01*
X438918Y71508D01*
X439036Y71580D01*
X439152Y71655D01*
X439266Y71734D01*
X439377Y71816D01*
X439486Y71901D01*
X439592Y71989D01*
X439696Y72081D01*
X439798Y72175D01*
X439896Y72272D01*
X439992Y72372D01*
X440084Y72474D01*
X440174Y72580D01*
X440261Y72687D01*
X440344Y72797D01*
X440425Y72910D01*
X440502Y73025D01*
X440575Y73142D01*
X440646Y73261D01*
X440712Y73382D01*
X440776Y73505D01*
X440836Y73630D01*
X440892Y73756D01*
X440944Y73884D01*
X440993Y74013D01*
X441038Y74144D01*
X441079Y74276D01*
X441116Y74409D01*
X441150Y74543D01*
X441180Y74679D01*
X441205Y74814D01*
X441227Y74951D01*
X441245Y75088D01*
X441259Y75226D01*
X441269Y75364D01*
X441275Y75502D01*
X441277Y75640D01*
X423864Y70842D02*
X423864Y88114D01*
X419066Y88114D01*
X418928Y88112D01*
X418790Y88106D01*
X418652Y88096D01*
X418514Y88082D01*
X418377Y88064D01*
X418240Y88042D01*
X418105Y88017D01*
X417969Y87987D01*
X417835Y87953D01*
X417702Y87916D01*
X417570Y87875D01*
X417439Y87830D01*
X417310Y87781D01*
X417182Y87729D01*
X417056Y87673D01*
X416931Y87613D01*
X416808Y87549D01*
X416687Y87483D01*
X416568Y87412D01*
X416451Y87339D01*
X416336Y87262D01*
X416223Y87181D01*
X416113Y87098D01*
X416006Y87011D01*
X415900Y86921D01*
X415798Y86829D01*
X415698Y86733D01*
X415601Y86635D01*
X415507Y86533D01*
X415415Y86429D01*
X415327Y86323D01*
X415242Y86214D01*
X415160Y86103D01*
X415081Y85989D01*
X415006Y85873D01*
X414934Y85755D01*
X414865Y85635D01*
X414800Y85513D01*
X414739Y85389D01*
X414681Y85263D01*
X414627Y85136D01*
X414576Y85007D01*
X414529Y84877D01*
X414486Y84746D01*
X414447Y84613D01*
X414411Y84480D01*
X414380Y84345D01*
X414352Y84210D01*
X414328Y84073D01*
X414308Y83937D01*
X414292Y83799D01*
X414280Y83661D01*
X414272Y83523D01*
X414268Y83385D01*
X414268Y83247D01*
X414272Y83109D01*
X414280Y82971D01*
X414292Y82833D01*
X414308Y82695D01*
X414328Y82559D01*
X414352Y82422D01*
X414380Y82287D01*
X414411Y82152D01*
X414447Y82019D01*
X414486Y81886D01*
X414529Y81755D01*
X414576Y81625D01*
X414627Y81496D01*
X414681Y81369D01*
X414739Y81243D01*
X414800Y81119D01*
X414865Y80997D01*
X414934Y80877D01*
X415006Y80759D01*
X415081Y80643D01*
X415160Y80529D01*
X415242Y80418D01*
X415327Y80309D01*
X415415Y80203D01*
X415507Y80099D01*
X415601Y79997D01*
X415698Y79899D01*
X415798Y79803D01*
X415900Y79711D01*
X416006Y79621D01*
X416113Y79534D01*
X416223Y79451D01*
X416336Y79370D01*
X416451Y79293D01*
X416568Y79220D01*
X416687Y79149D01*
X416808Y79083D01*
X416931Y79019D01*
X417056Y78959D01*
X417182Y78903D01*
X417310Y78851D01*
X417439Y78802D01*
X417570Y78757D01*
X417702Y78716D01*
X417835Y78679D01*
X417969Y78645D01*
X418105Y78615D01*
X418240Y78590D01*
X418377Y78568D01*
X418514Y78550D01*
X418652Y78536D01*
X418790Y78526D01*
X418928Y78520D01*
X419066Y78518D01*
X423864Y78518D01*
X418106Y78518D02*
X414268Y70842D01*
X567826Y41886D02*
X571665Y41886D01*
X571788Y41888D01*
X571911Y41894D01*
X572034Y41904D01*
X572156Y41918D01*
X572278Y41935D01*
X572399Y41957D01*
X572519Y41982D01*
X572639Y42012D01*
X572757Y42045D01*
X572874Y42082D01*
X572991Y42122D01*
X573105Y42166D01*
X573219Y42214D01*
X573330Y42266D01*
X573440Y42321D01*
X573548Y42380D01*
X573655Y42442D01*
X573759Y42507D01*
X573861Y42576D01*
X573961Y42648D01*
X574058Y42723D01*
X574153Y42802D01*
X574245Y42883D01*
X574335Y42967D01*
X574422Y43054D01*
X574506Y43144D01*
X574587Y43236D01*
X574666Y43331D01*
X574741Y43428D01*
X574813Y43528D01*
X574882Y43630D01*
X574947Y43734D01*
X575009Y43841D01*
X575068Y43949D01*
X575123Y44059D01*
X575175Y44170D01*
X575223Y44284D01*
X575267Y44399D01*
X575307Y44515D01*
X575344Y44632D01*
X575377Y44750D01*
X575407Y44870D01*
X575432Y44990D01*
X575454Y45111D01*
X575471Y45233D01*
X575485Y45355D01*
X575495Y45478D01*
X575501Y45601D01*
X575503Y45724D01*
X575503Y55320D01*
X575502Y55320D02*
X575500Y55443D01*
X575494Y55566D01*
X575484Y55689D01*
X575470Y55811D01*
X575453Y55933D01*
X575431Y56054D01*
X575406Y56174D01*
X575376Y56294D01*
X575343Y56412D01*
X575306Y56529D01*
X575266Y56645D01*
X575222Y56760D01*
X575174Y56874D01*
X575122Y56985D01*
X575067Y57095D01*
X575008Y57203D01*
X574946Y57310D01*
X574881Y57414D01*
X574812Y57516D01*
X574740Y57616D01*
X574665Y57713D01*
X574586Y57808D01*
X574505Y57900D01*
X574421Y57990D01*
X574334Y58077D01*
X574244Y58161D01*
X574152Y58242D01*
X574057Y58321D01*
X573960Y58396D01*
X573860Y58468D01*
X573758Y58537D01*
X573654Y58602D01*
X573547Y58664D01*
X573439Y58723D01*
X573329Y58778D01*
X573218Y58829D01*
X573104Y58877D01*
X572990Y58922D01*
X572873Y58962D01*
X572756Y58999D01*
X572638Y59032D01*
X572518Y59062D01*
X572398Y59087D01*
X572277Y59109D01*
X572155Y59126D01*
X572033Y59140D01*
X571910Y59150D01*
X571787Y59156D01*
X571664Y59158D01*
X571665Y59158D02*
X567826Y59158D01*
X561500Y54360D02*
X561500Y46684D01*
X561501Y54360D02*
X561499Y54498D01*
X561493Y54636D01*
X561483Y54774D01*
X561469Y54912D01*
X561451Y55049D01*
X561429Y55186D01*
X561404Y55321D01*
X561374Y55457D01*
X561340Y55591D01*
X561303Y55724D01*
X561262Y55856D01*
X561217Y55987D01*
X561168Y56116D01*
X561116Y56244D01*
X561060Y56370D01*
X561000Y56495D01*
X560936Y56618D01*
X560870Y56739D01*
X560799Y56858D01*
X560726Y56975D01*
X560649Y57090D01*
X560568Y57203D01*
X560485Y57313D01*
X560398Y57420D01*
X560308Y57526D01*
X560216Y57628D01*
X560120Y57728D01*
X560022Y57825D01*
X559920Y57919D01*
X559816Y58011D01*
X559710Y58099D01*
X559601Y58184D01*
X559490Y58266D01*
X559376Y58345D01*
X559260Y58420D01*
X559142Y58492D01*
X559022Y58561D01*
X558900Y58626D01*
X558776Y58687D01*
X558650Y58745D01*
X558523Y58799D01*
X558394Y58850D01*
X558264Y58897D01*
X558133Y58940D01*
X558000Y58979D01*
X557867Y59015D01*
X557732Y59046D01*
X557597Y59074D01*
X557460Y59098D01*
X557324Y59118D01*
X557186Y59134D01*
X557048Y59146D01*
X556910Y59154D01*
X556772Y59158D01*
X556634Y59158D01*
X556496Y59154D01*
X556358Y59146D01*
X556220Y59134D01*
X556082Y59118D01*
X555946Y59098D01*
X555809Y59074D01*
X555674Y59046D01*
X555539Y59015D01*
X555406Y58979D01*
X555273Y58940D01*
X555142Y58897D01*
X555012Y58850D01*
X554883Y58799D01*
X554756Y58745D01*
X554630Y58687D01*
X554506Y58626D01*
X554384Y58561D01*
X554264Y58492D01*
X554146Y58420D01*
X554030Y58345D01*
X553916Y58266D01*
X553805Y58184D01*
X553696Y58099D01*
X553590Y58011D01*
X553486Y57919D01*
X553384Y57825D01*
X553286Y57728D01*
X553190Y57628D01*
X553098Y57526D01*
X553008Y57420D01*
X552921Y57313D01*
X552838Y57203D01*
X552757Y57090D01*
X552680Y56975D01*
X552607Y56858D01*
X552536Y56739D01*
X552470Y56618D01*
X552406Y56495D01*
X552346Y56370D01*
X552290Y56244D01*
X552238Y56116D01*
X552189Y55987D01*
X552144Y55856D01*
X552103Y55724D01*
X552066Y55591D01*
X552032Y55457D01*
X552002Y55321D01*
X551977Y55186D01*
X551955Y55049D01*
X551937Y54912D01*
X551923Y54774D01*
X551913Y54636D01*
X551907Y54498D01*
X551905Y54360D01*
X551905Y46684D01*
X551907Y46546D01*
X551913Y46408D01*
X551923Y46270D01*
X551937Y46132D01*
X551955Y45995D01*
X551977Y45858D01*
X552002Y45723D01*
X552032Y45587D01*
X552066Y45453D01*
X552103Y45320D01*
X552144Y45188D01*
X552189Y45057D01*
X552238Y44928D01*
X552290Y44800D01*
X552346Y44674D01*
X552406Y44549D01*
X552470Y44426D01*
X552536Y44305D01*
X552607Y44186D01*
X552680Y44069D01*
X552757Y43954D01*
X552838Y43841D01*
X552921Y43731D01*
X553008Y43624D01*
X553098Y43518D01*
X553190Y43416D01*
X553286Y43316D01*
X553384Y43219D01*
X553486Y43125D01*
X553590Y43033D01*
X553696Y42945D01*
X553805Y42860D01*
X553916Y42778D01*
X554030Y42699D01*
X554146Y42624D01*
X554264Y42552D01*
X554384Y42483D01*
X554506Y42418D01*
X554630Y42357D01*
X554756Y42299D01*
X554883Y42245D01*
X555012Y42194D01*
X555142Y42147D01*
X555273Y42104D01*
X555406Y42065D01*
X555539Y42029D01*
X555674Y41998D01*
X555809Y41970D01*
X555946Y41946D01*
X556082Y41926D01*
X556220Y41910D01*
X556358Y41898D01*
X556496Y41890D01*
X556634Y41886D01*
X556772Y41886D01*
X556910Y41890D01*
X557048Y41898D01*
X557186Y41910D01*
X557324Y41926D01*
X557460Y41946D01*
X557597Y41970D01*
X557732Y41998D01*
X557867Y42029D01*
X558000Y42065D01*
X558133Y42104D01*
X558264Y42147D01*
X558394Y42194D01*
X558523Y42245D01*
X558650Y42299D01*
X558776Y42357D01*
X558900Y42418D01*
X559022Y42483D01*
X559142Y42552D01*
X559260Y42624D01*
X559376Y42699D01*
X559490Y42778D01*
X559601Y42860D01*
X559710Y42945D01*
X559816Y43033D01*
X559920Y43125D01*
X560022Y43219D01*
X560120Y43316D01*
X560216Y43416D01*
X560308Y43518D01*
X560398Y43624D01*
X560485Y43731D01*
X560568Y43841D01*
X560649Y43954D01*
X560726Y44069D01*
X560799Y44186D01*
X560870Y44305D01*
X560936Y44426D01*
X561000Y44549D01*
X561060Y44674D01*
X561116Y44800D01*
X561168Y44928D01*
X561217Y45057D01*
X561262Y45188D01*
X561303Y45320D01*
X561340Y45453D01*
X561374Y45587D01*
X561404Y45723D01*
X561429Y45858D01*
X561451Y45995D01*
X561469Y46132D01*
X561483Y46270D01*
X561493Y46408D01*
X561499Y46546D01*
X561501Y46684D01*
X544192Y41886D02*
X544192Y59158D01*
X534596Y41886D01*
X534596Y59158D01*
X523202Y59158D02*
X523202Y41886D01*
X527999Y59158D02*
X518404Y59158D01*
X511703Y59158D02*
X511703Y41886D01*
X511703Y59158D02*
X506905Y59158D01*
X506767Y59156D01*
X506629Y59150D01*
X506491Y59140D01*
X506353Y59126D01*
X506216Y59108D01*
X506079Y59086D01*
X505944Y59061D01*
X505808Y59031D01*
X505674Y58997D01*
X505541Y58960D01*
X505409Y58919D01*
X505278Y58874D01*
X505149Y58825D01*
X505021Y58773D01*
X504895Y58717D01*
X504770Y58657D01*
X504647Y58593D01*
X504526Y58527D01*
X504407Y58456D01*
X504290Y58383D01*
X504175Y58306D01*
X504062Y58225D01*
X503952Y58142D01*
X503845Y58055D01*
X503739Y57965D01*
X503637Y57873D01*
X503537Y57777D01*
X503440Y57679D01*
X503346Y57577D01*
X503254Y57473D01*
X503166Y57367D01*
X503081Y57258D01*
X502999Y57147D01*
X502920Y57033D01*
X502845Y56917D01*
X502773Y56799D01*
X502704Y56679D01*
X502639Y56557D01*
X502578Y56433D01*
X502520Y56307D01*
X502466Y56180D01*
X502415Y56051D01*
X502368Y55921D01*
X502325Y55790D01*
X502286Y55657D01*
X502250Y55524D01*
X502219Y55389D01*
X502191Y55254D01*
X502167Y55117D01*
X502147Y54981D01*
X502131Y54843D01*
X502119Y54705D01*
X502111Y54567D01*
X502107Y54429D01*
X502107Y54291D01*
X502111Y54153D01*
X502119Y54015D01*
X502131Y53877D01*
X502147Y53739D01*
X502167Y53603D01*
X502191Y53466D01*
X502219Y53331D01*
X502250Y53196D01*
X502286Y53063D01*
X502325Y52930D01*
X502368Y52799D01*
X502415Y52669D01*
X502466Y52540D01*
X502520Y52413D01*
X502578Y52287D01*
X502639Y52163D01*
X502704Y52041D01*
X502773Y51921D01*
X502845Y51803D01*
X502920Y51687D01*
X502999Y51573D01*
X503081Y51462D01*
X503166Y51353D01*
X503254Y51247D01*
X503346Y51143D01*
X503440Y51041D01*
X503537Y50943D01*
X503637Y50847D01*
X503739Y50755D01*
X503845Y50665D01*
X503952Y50578D01*
X504062Y50495D01*
X504175Y50414D01*
X504290Y50337D01*
X504407Y50264D01*
X504526Y50193D01*
X504647Y50127D01*
X504770Y50063D01*
X504895Y50003D01*
X505021Y49947D01*
X505149Y49895D01*
X505278Y49846D01*
X505409Y49801D01*
X505541Y49760D01*
X505674Y49723D01*
X505808Y49689D01*
X505944Y49659D01*
X506079Y49634D01*
X506216Y49612D01*
X506353Y49594D01*
X506491Y49580D01*
X506629Y49570D01*
X506767Y49564D01*
X506905Y49562D01*
X511703Y49562D01*
X505946Y49562D02*
X502108Y41886D01*
X495057Y46684D02*
X495057Y54360D01*
X495055Y54498D01*
X495049Y54636D01*
X495039Y54774D01*
X495025Y54912D01*
X495007Y55049D01*
X494985Y55186D01*
X494960Y55321D01*
X494930Y55457D01*
X494896Y55591D01*
X494859Y55724D01*
X494818Y55856D01*
X494773Y55987D01*
X494724Y56116D01*
X494672Y56244D01*
X494616Y56370D01*
X494556Y56495D01*
X494492Y56618D01*
X494426Y56739D01*
X494355Y56858D01*
X494282Y56975D01*
X494205Y57090D01*
X494124Y57203D01*
X494041Y57313D01*
X493954Y57420D01*
X493864Y57526D01*
X493772Y57628D01*
X493676Y57728D01*
X493578Y57825D01*
X493476Y57919D01*
X493372Y58011D01*
X493266Y58099D01*
X493157Y58184D01*
X493046Y58266D01*
X492932Y58345D01*
X492816Y58420D01*
X492698Y58492D01*
X492578Y58561D01*
X492456Y58626D01*
X492332Y58687D01*
X492206Y58745D01*
X492079Y58799D01*
X491950Y58850D01*
X491820Y58897D01*
X491689Y58940D01*
X491556Y58979D01*
X491423Y59015D01*
X491288Y59046D01*
X491153Y59074D01*
X491016Y59098D01*
X490880Y59118D01*
X490742Y59134D01*
X490604Y59146D01*
X490466Y59154D01*
X490328Y59158D01*
X490190Y59158D01*
X490052Y59154D01*
X489914Y59146D01*
X489776Y59134D01*
X489638Y59118D01*
X489502Y59098D01*
X489365Y59074D01*
X489230Y59046D01*
X489095Y59015D01*
X488962Y58979D01*
X488829Y58940D01*
X488698Y58897D01*
X488568Y58850D01*
X488439Y58799D01*
X488312Y58745D01*
X488186Y58687D01*
X488062Y58626D01*
X487940Y58561D01*
X487820Y58492D01*
X487702Y58420D01*
X487586Y58345D01*
X487472Y58266D01*
X487361Y58184D01*
X487252Y58099D01*
X487146Y58011D01*
X487042Y57919D01*
X486940Y57825D01*
X486842Y57728D01*
X486746Y57628D01*
X486654Y57526D01*
X486564Y57420D01*
X486477Y57313D01*
X486394Y57203D01*
X486313Y57090D01*
X486236Y56975D01*
X486163Y56858D01*
X486092Y56739D01*
X486026Y56618D01*
X485962Y56495D01*
X485902Y56370D01*
X485846Y56244D01*
X485794Y56116D01*
X485745Y55987D01*
X485700Y55856D01*
X485659Y55724D01*
X485622Y55591D01*
X485588Y55457D01*
X485558Y55321D01*
X485533Y55186D01*
X485511Y55049D01*
X485493Y54912D01*
X485479Y54774D01*
X485469Y54636D01*
X485463Y54498D01*
X485461Y54360D01*
X485461Y46684D01*
X485463Y46546D01*
X485469Y46408D01*
X485479Y46270D01*
X485493Y46132D01*
X485511Y45995D01*
X485533Y45858D01*
X485558Y45723D01*
X485588Y45587D01*
X485622Y45453D01*
X485659Y45320D01*
X485700Y45188D01*
X485745Y45057D01*
X485794Y44928D01*
X485846Y44800D01*
X485902Y44674D01*
X485962Y44549D01*
X486026Y44426D01*
X486092Y44305D01*
X486163Y44186D01*
X486236Y44069D01*
X486313Y43954D01*
X486394Y43841D01*
X486477Y43731D01*
X486564Y43624D01*
X486654Y43518D01*
X486746Y43416D01*
X486842Y43316D01*
X486940Y43219D01*
X487042Y43125D01*
X487146Y43033D01*
X487252Y42945D01*
X487361Y42860D01*
X487472Y42778D01*
X487586Y42699D01*
X487702Y42624D01*
X487820Y42552D01*
X487940Y42483D01*
X488062Y42418D01*
X488186Y42357D01*
X488312Y42299D01*
X488439Y42245D01*
X488568Y42194D01*
X488698Y42147D01*
X488829Y42104D01*
X488962Y42065D01*
X489095Y42029D01*
X489230Y41998D01*
X489365Y41970D01*
X489502Y41946D01*
X489638Y41926D01*
X489776Y41910D01*
X489914Y41898D01*
X490052Y41890D01*
X490190Y41886D01*
X490328Y41886D01*
X490466Y41890D01*
X490604Y41898D01*
X490742Y41910D01*
X490880Y41926D01*
X491016Y41946D01*
X491153Y41970D01*
X491288Y41998D01*
X491423Y42029D01*
X491556Y42065D01*
X491689Y42104D01*
X491820Y42147D01*
X491950Y42194D01*
X492079Y42245D01*
X492206Y42299D01*
X492332Y42357D01*
X492456Y42418D01*
X492578Y42483D01*
X492698Y42552D01*
X492816Y42624D01*
X492932Y42699D01*
X493046Y42778D01*
X493157Y42860D01*
X493266Y42945D01*
X493372Y43033D01*
X493476Y43125D01*
X493578Y43219D01*
X493676Y43316D01*
X493772Y43416D01*
X493864Y43518D01*
X493954Y43624D01*
X494041Y43731D01*
X494124Y43841D01*
X494205Y43954D01*
X494282Y44069D01*
X494355Y44186D01*
X494426Y44305D01*
X494492Y44426D01*
X494556Y44549D01*
X494616Y44674D01*
X494672Y44800D01*
X494724Y44928D01*
X494773Y45057D01*
X494818Y45188D01*
X494859Y45320D01*
X494896Y45453D01*
X494930Y45587D01*
X494960Y45723D01*
X494985Y45858D01*
X495007Y45995D01*
X495025Y46132D01*
X495039Y46270D01*
X495049Y46408D01*
X495055Y46546D01*
X495057Y46684D01*
X477713Y41886D02*
X477713Y59158D01*
X477713Y41886D02*
X470037Y41886D01*
X463196Y41886D02*
X463196Y59158D01*
X463196Y41886D02*
X455520Y41886D01*
X448679Y41886D02*
X441003Y41886D01*
X448679Y41886D02*
X448679Y59158D01*
X441003Y59158D01*
X442922Y51482D02*
X448679Y51482D01*
X434093Y59158D02*
X434093Y41886D01*
X434093Y59158D02*
X429295Y59158D01*
X429157Y59156D01*
X429019Y59150D01*
X428881Y59140D01*
X428743Y59126D01*
X428606Y59108D01*
X428469Y59086D01*
X428334Y59061D01*
X428198Y59031D01*
X428064Y58997D01*
X427931Y58960D01*
X427799Y58919D01*
X427668Y58874D01*
X427539Y58825D01*
X427411Y58773D01*
X427285Y58717D01*
X427160Y58657D01*
X427037Y58593D01*
X426916Y58527D01*
X426797Y58456D01*
X426680Y58383D01*
X426565Y58306D01*
X426452Y58225D01*
X426342Y58142D01*
X426235Y58055D01*
X426129Y57965D01*
X426027Y57873D01*
X425927Y57777D01*
X425830Y57679D01*
X425736Y57577D01*
X425644Y57473D01*
X425556Y57367D01*
X425471Y57258D01*
X425389Y57147D01*
X425310Y57033D01*
X425235Y56917D01*
X425163Y56799D01*
X425094Y56679D01*
X425029Y56557D01*
X424968Y56433D01*
X424910Y56307D01*
X424856Y56180D01*
X424805Y56051D01*
X424758Y55921D01*
X424715Y55790D01*
X424676Y55657D01*
X424640Y55524D01*
X424609Y55389D01*
X424581Y55254D01*
X424557Y55117D01*
X424537Y54981D01*
X424521Y54843D01*
X424509Y54705D01*
X424501Y54567D01*
X424497Y54429D01*
X424497Y54291D01*
X424501Y54153D01*
X424509Y54015D01*
X424521Y53877D01*
X424537Y53739D01*
X424557Y53603D01*
X424581Y53466D01*
X424609Y53331D01*
X424640Y53196D01*
X424676Y53063D01*
X424715Y52930D01*
X424758Y52799D01*
X424805Y52669D01*
X424856Y52540D01*
X424910Y52413D01*
X424968Y52287D01*
X425029Y52163D01*
X425094Y52041D01*
X425163Y51921D01*
X425235Y51803D01*
X425310Y51687D01*
X425389Y51573D01*
X425471Y51462D01*
X425556Y51353D01*
X425644Y51247D01*
X425736Y51143D01*
X425830Y51041D01*
X425927Y50943D01*
X426027Y50847D01*
X426129Y50755D01*
X426235Y50665D01*
X426342Y50578D01*
X426452Y50495D01*
X426565Y50414D01*
X426680Y50337D01*
X426797Y50264D01*
X426916Y50193D01*
X427037Y50127D01*
X427160Y50063D01*
X427285Y50003D01*
X427411Y49947D01*
X427539Y49895D01*
X427668Y49846D01*
X427799Y49801D01*
X427931Y49760D01*
X428064Y49723D01*
X428198Y49689D01*
X428334Y49659D01*
X428469Y49634D01*
X428606Y49612D01*
X428743Y49594D01*
X428881Y49580D01*
X429019Y49570D01*
X429157Y49564D01*
X429295Y49562D01*
X434093Y49562D01*
X428336Y49562D02*
X424497Y41886D01*
X639821Y19647D02*
X644139Y19647D01*
X644139Y19646D02*
X644254Y19644D01*
X644368Y19638D01*
X644482Y19628D01*
X644596Y19615D01*
X644710Y19597D01*
X644822Y19576D01*
X644934Y19551D01*
X645045Y19521D01*
X645155Y19489D01*
X645264Y19452D01*
X645371Y19412D01*
X645477Y19368D01*
X645581Y19321D01*
X645684Y19270D01*
X645785Y19215D01*
X645884Y19157D01*
X645981Y19096D01*
X646075Y19031D01*
X646168Y18964D01*
X646258Y18893D01*
X646346Y18819D01*
X646431Y18742D01*
X646513Y18662D01*
X646593Y18580D01*
X646670Y18495D01*
X646744Y18407D01*
X646815Y18317D01*
X646882Y18224D01*
X646947Y18130D01*
X647008Y18033D01*
X647066Y17934D01*
X647121Y17833D01*
X647172Y17730D01*
X647219Y17626D01*
X647263Y17520D01*
X647303Y17413D01*
X647340Y17304D01*
X647372Y17194D01*
X647402Y17083D01*
X647427Y16971D01*
X647448Y16859D01*
X647466Y16745D01*
X647479Y16631D01*
X647489Y16517D01*
X647495Y16403D01*
X647497Y16288D01*
X647495Y16173D01*
X647489Y16059D01*
X647479Y15945D01*
X647466Y15831D01*
X647448Y15717D01*
X647427Y15605D01*
X647402Y15493D01*
X647372Y15382D01*
X647340Y15272D01*
X647303Y15163D01*
X647263Y15056D01*
X647219Y14950D01*
X647172Y14846D01*
X647121Y14743D01*
X647066Y14642D01*
X647008Y14543D01*
X646947Y14446D01*
X646882Y14352D01*
X646815Y14259D01*
X646744Y14169D01*
X646670Y14081D01*
X646593Y13996D01*
X646513Y13914D01*
X646431Y13834D01*
X646346Y13757D01*
X646258Y13683D01*
X646168Y13612D01*
X646075Y13545D01*
X645981Y13480D01*
X645884Y13419D01*
X645785Y13361D01*
X645684Y13306D01*
X645581Y13255D01*
X645477Y13208D01*
X645371Y13164D01*
X645264Y13124D01*
X645155Y13087D01*
X645045Y13055D01*
X644934Y13025D01*
X644822Y13000D01*
X644710Y12979D01*
X644596Y12961D01*
X644482Y12948D01*
X644368Y12938D01*
X644254Y12932D01*
X644139Y12930D01*
X639821Y12930D01*
X639821Y21566D01*
X639823Y21671D01*
X639829Y21776D01*
X639838Y21881D01*
X639852Y21985D01*
X639869Y22089D01*
X639890Y22192D01*
X639915Y22294D01*
X639943Y22395D01*
X639975Y22496D01*
X640011Y22594D01*
X640050Y22692D01*
X640093Y22788D01*
X640140Y22882D01*
X640189Y22975D01*
X640243Y23066D01*
X640299Y23155D01*
X640359Y23241D01*
X640421Y23326D01*
X640487Y23408D01*
X640556Y23487D01*
X640627Y23564D01*
X640702Y23639D01*
X640779Y23710D01*
X640858Y23779D01*
X640940Y23845D01*
X641025Y23907D01*
X641111Y23967D01*
X641200Y24024D01*
X641291Y24077D01*
X641384Y24126D01*
X641478Y24173D01*
X641574Y24216D01*
X641672Y24255D01*
X641770Y24291D01*
X641871Y24323D01*
X641972Y24351D01*
X642074Y24376D01*
X642177Y24397D01*
X642281Y24414D01*
X642385Y24428D01*
X642490Y24437D01*
X642595Y24443D01*
X642700Y24445D01*
X646538Y24445D01*
X632897Y7173D02*
X630978Y7173D01*
X625221Y24445D01*
X632897Y24445D02*
X629059Y12930D01*
X618380Y15809D02*
X618380Y24445D01*
X618380Y15809D02*
X618378Y15704D01*
X618372Y15599D01*
X618363Y15494D01*
X618349Y15390D01*
X618332Y15286D01*
X618311Y15183D01*
X618286Y15081D01*
X618258Y14980D01*
X618226Y14879D01*
X618190Y14781D01*
X618151Y14683D01*
X618108Y14587D01*
X618061Y14493D01*
X618012Y14400D01*
X617959Y14309D01*
X617902Y14220D01*
X617842Y14134D01*
X617780Y14049D01*
X617714Y13967D01*
X617645Y13888D01*
X617574Y13811D01*
X617499Y13736D01*
X617422Y13665D01*
X617343Y13596D01*
X617261Y13530D01*
X617176Y13468D01*
X617090Y13408D01*
X617001Y13352D01*
X616910Y13298D01*
X616817Y13249D01*
X616723Y13202D01*
X616627Y13159D01*
X616529Y13120D01*
X616431Y13084D01*
X616330Y13052D01*
X616229Y13024D01*
X616127Y12999D01*
X616024Y12978D01*
X615920Y12961D01*
X615816Y12947D01*
X615711Y12938D01*
X615606Y12932D01*
X615501Y12930D01*
X610704Y12930D01*
X610704Y24445D01*
X601865Y19647D02*
X597067Y17728D01*
X601865Y19647D02*
X601956Y19685D01*
X602045Y19727D01*
X602133Y19773D01*
X602218Y19822D01*
X602302Y19874D01*
X602383Y19930D01*
X602463Y19989D01*
X602539Y20050D01*
X602614Y20115D01*
X602685Y20183D01*
X602754Y20254D01*
X602820Y20327D01*
X602884Y20403D01*
X602944Y20481D01*
X603001Y20561D01*
X603054Y20644D01*
X603105Y20729D01*
X603152Y20816D01*
X603195Y20904D01*
X603235Y20994D01*
X603272Y21086D01*
X603304Y21179D01*
X603333Y21273D01*
X603358Y21369D01*
X603380Y21465D01*
X603397Y21562D01*
X603411Y21660D01*
X603421Y21758D01*
X603427Y21856D01*
X603429Y21955D01*
X603427Y22054D01*
X603421Y22152D01*
X603412Y22250D01*
X603398Y22348D01*
X603381Y22445D01*
X603359Y22541D01*
X603334Y22637D01*
X603306Y22731D01*
X603273Y22824D01*
X603237Y22916D01*
X603197Y23006D01*
X603154Y23095D01*
X603107Y23182D01*
X603057Y23266D01*
X603003Y23349D01*
X602946Y23430D01*
X602886Y23508D01*
X602823Y23584D01*
X602757Y23657D01*
X602688Y23728D01*
X602617Y23796D01*
X602543Y23861D01*
X602466Y23923D01*
X602387Y23982D01*
X602305Y24038D01*
X602222Y24090D01*
X602136Y24139D01*
X602049Y24185D01*
X601960Y24227D01*
X601869Y24265D01*
X601777Y24300D01*
X601683Y24332D01*
X601588Y24359D01*
X601493Y24383D01*
X601396Y24403D01*
X601299Y24419D01*
X601201Y24431D01*
X601103Y24440D01*
X601004Y24444D01*
X600905Y24445D01*
X600643Y24438D01*
X600382Y24425D01*
X600120Y24405D01*
X599860Y24380D01*
X599600Y24348D01*
X599340Y24309D01*
X599082Y24265D01*
X598825Y24214D01*
X598569Y24157D01*
X598315Y24094D01*
X598062Y24025D01*
X597811Y23950D01*
X597562Y23869D01*
X597315Y23782D01*
X597070Y23689D01*
X596827Y23590D01*
X596587Y23485D01*
X597067Y17728D02*
X596976Y17690D01*
X596887Y17648D01*
X596799Y17602D01*
X596714Y17553D01*
X596630Y17501D01*
X596549Y17445D01*
X596469Y17386D01*
X596393Y17325D01*
X596318Y17260D01*
X596247Y17192D01*
X596178Y17121D01*
X596112Y17048D01*
X596048Y16972D01*
X595988Y16894D01*
X595931Y16814D01*
X595878Y16731D01*
X595827Y16646D01*
X595780Y16559D01*
X595737Y16471D01*
X595697Y16381D01*
X595660Y16289D01*
X595628Y16196D01*
X595599Y16102D01*
X595574Y16006D01*
X595552Y15910D01*
X595535Y15813D01*
X595521Y15715D01*
X595511Y15617D01*
X595505Y15519D01*
X595503Y15420D01*
X595505Y15321D01*
X595511Y15223D01*
X595520Y15125D01*
X595534Y15027D01*
X595551Y14930D01*
X595573Y14834D01*
X595598Y14738D01*
X595626Y14644D01*
X595659Y14551D01*
X595695Y14459D01*
X595735Y14369D01*
X595778Y14280D01*
X595825Y14193D01*
X595875Y14109D01*
X595929Y14026D01*
X595986Y13945D01*
X596046Y13867D01*
X596109Y13791D01*
X596175Y13718D01*
X596244Y13647D01*
X596315Y13579D01*
X596389Y13514D01*
X596466Y13452D01*
X596545Y13393D01*
X596627Y13337D01*
X596710Y13285D01*
X596796Y13236D01*
X596883Y13190D01*
X596972Y13148D01*
X597063Y13110D01*
X597155Y13075D01*
X597249Y13043D01*
X597344Y13016D01*
X597439Y12992D01*
X597536Y12972D01*
X597633Y12956D01*
X597731Y12944D01*
X597829Y12935D01*
X597928Y12931D01*
X598027Y12930D01*
X598027Y12931D02*
X598412Y12941D01*
X598797Y12960D01*
X599180Y12988D01*
X599563Y13025D01*
X599946Y13072D01*
X600326Y13127D01*
X600706Y13191D01*
X601084Y13265D01*
X601460Y13347D01*
X601834Y13438D01*
X602205Y13538D01*
X602575Y13647D01*
X602941Y13764D01*
X603305Y13890D01*
X588229Y12930D02*
X588229Y30202D01*
X588229Y24445D02*
X583431Y24445D01*
X583326Y24443D01*
X583221Y24437D01*
X583116Y24428D01*
X583012Y24414D01*
X582908Y24397D01*
X582805Y24376D01*
X582703Y24351D01*
X582602Y24323D01*
X582501Y24291D01*
X582403Y24255D01*
X582305Y24216D01*
X582209Y24173D01*
X582115Y24126D01*
X582022Y24077D01*
X581931Y24024D01*
X581842Y23967D01*
X581756Y23907D01*
X581671Y23845D01*
X581589Y23779D01*
X581510Y23710D01*
X581433Y23639D01*
X581358Y23564D01*
X581287Y23487D01*
X581218Y23408D01*
X581152Y23326D01*
X581090Y23241D01*
X581030Y23155D01*
X580974Y23066D01*
X580920Y22975D01*
X580871Y22882D01*
X580824Y22788D01*
X580781Y22692D01*
X580742Y22595D01*
X580706Y22496D01*
X580674Y22395D01*
X580646Y22294D01*
X580621Y22192D01*
X580600Y22089D01*
X580583Y21985D01*
X580569Y21881D01*
X580560Y21776D01*
X580554Y21671D01*
X580552Y21566D01*
X580553Y21566D02*
X580553Y12930D01*
X572281Y12930D02*
X572281Y24445D01*
X563645Y24445D01*
X563540Y24443D01*
X563435Y24437D01*
X563330Y24428D01*
X563226Y24414D01*
X563122Y24397D01*
X563019Y24376D01*
X562917Y24351D01*
X562816Y24323D01*
X562715Y24291D01*
X562617Y24255D01*
X562519Y24216D01*
X562423Y24173D01*
X562329Y24126D01*
X562236Y24077D01*
X562145Y24024D01*
X562056Y23967D01*
X561970Y23907D01*
X561885Y23845D01*
X561803Y23779D01*
X561724Y23710D01*
X561647Y23639D01*
X561572Y23564D01*
X561501Y23487D01*
X561432Y23408D01*
X561366Y23326D01*
X561304Y23241D01*
X561244Y23155D01*
X561188Y23066D01*
X561134Y22975D01*
X561085Y22882D01*
X561038Y22788D01*
X560995Y22692D01*
X560956Y22594D01*
X560920Y22496D01*
X560888Y22395D01*
X560860Y22294D01*
X560835Y22192D01*
X560814Y22089D01*
X560797Y21985D01*
X560783Y21881D01*
X560774Y21776D01*
X560768Y21671D01*
X560766Y21566D01*
X560766Y12930D01*
X566524Y12930D02*
X566524Y24445D01*
X549778Y19647D02*
X545460Y19647D01*
X549778Y19646D02*
X549893Y19644D01*
X550007Y19638D01*
X550121Y19628D01*
X550235Y19615D01*
X550349Y19597D01*
X550461Y19576D01*
X550573Y19551D01*
X550684Y19521D01*
X550794Y19489D01*
X550903Y19452D01*
X551010Y19412D01*
X551116Y19368D01*
X551220Y19321D01*
X551323Y19270D01*
X551424Y19215D01*
X551523Y19157D01*
X551620Y19096D01*
X551714Y19031D01*
X551807Y18964D01*
X551897Y18893D01*
X551985Y18819D01*
X552070Y18742D01*
X552152Y18662D01*
X552232Y18580D01*
X552309Y18495D01*
X552383Y18407D01*
X552454Y18317D01*
X552521Y18224D01*
X552586Y18130D01*
X552647Y18033D01*
X552705Y17934D01*
X552760Y17833D01*
X552811Y17730D01*
X552858Y17626D01*
X552902Y17520D01*
X552942Y17413D01*
X552979Y17304D01*
X553011Y17194D01*
X553041Y17083D01*
X553066Y16971D01*
X553087Y16859D01*
X553105Y16745D01*
X553118Y16631D01*
X553128Y16517D01*
X553134Y16403D01*
X553136Y16288D01*
X553134Y16173D01*
X553128Y16059D01*
X553118Y15945D01*
X553105Y15831D01*
X553087Y15717D01*
X553066Y15605D01*
X553041Y15493D01*
X553011Y15382D01*
X552979Y15272D01*
X552942Y15163D01*
X552902Y15056D01*
X552858Y14950D01*
X552811Y14846D01*
X552760Y14743D01*
X552705Y14642D01*
X552647Y14543D01*
X552586Y14446D01*
X552521Y14352D01*
X552454Y14259D01*
X552383Y14169D01*
X552309Y14081D01*
X552232Y13996D01*
X552152Y13914D01*
X552070Y13834D01*
X551985Y13757D01*
X551897Y13683D01*
X551807Y13612D01*
X551714Y13545D01*
X551620Y13480D01*
X551523Y13419D01*
X551424Y13361D01*
X551323Y13306D01*
X551220Y13255D01*
X551116Y13208D01*
X551010Y13164D01*
X550903Y13124D01*
X550794Y13087D01*
X550684Y13055D01*
X550573Y13025D01*
X550461Y13000D01*
X550349Y12979D01*
X550235Y12961D01*
X550121Y12948D01*
X550007Y12938D01*
X549893Y12932D01*
X549778Y12930D01*
X545460Y12930D01*
X545460Y21566D01*
X545462Y21671D01*
X545468Y21776D01*
X545477Y21881D01*
X545491Y21985D01*
X545508Y22089D01*
X545529Y22192D01*
X545554Y22294D01*
X545582Y22395D01*
X545614Y22496D01*
X545650Y22594D01*
X545689Y22692D01*
X545732Y22788D01*
X545779Y22882D01*
X545828Y22975D01*
X545882Y23066D01*
X545938Y23155D01*
X545998Y23241D01*
X546060Y23326D01*
X546126Y23408D01*
X546195Y23487D01*
X546266Y23564D01*
X546341Y23639D01*
X546418Y23710D01*
X546497Y23779D01*
X546579Y23845D01*
X546664Y23907D01*
X546750Y23967D01*
X546839Y24024D01*
X546930Y24077D01*
X547023Y24126D01*
X547117Y24173D01*
X547213Y24216D01*
X547311Y24255D01*
X547409Y24291D01*
X547510Y24323D01*
X547611Y24351D01*
X547713Y24376D01*
X547816Y24397D01*
X547920Y24414D01*
X548024Y24428D01*
X548129Y24437D01*
X548234Y24443D01*
X548339Y24445D01*
X552177Y24445D01*
X537419Y24445D02*
X537419Y12930D01*
X537419Y24445D02*
X532622Y24445D01*
X532517Y24443D01*
X532412Y24437D01*
X532307Y24428D01*
X532203Y24414D01*
X532099Y24397D01*
X531996Y24376D01*
X531894Y24351D01*
X531793Y24323D01*
X531692Y24291D01*
X531594Y24255D01*
X531496Y24216D01*
X531400Y24173D01*
X531306Y24126D01*
X531213Y24077D01*
X531122Y24024D01*
X531033Y23967D01*
X530947Y23907D01*
X530862Y23845D01*
X530780Y23779D01*
X530701Y23710D01*
X530624Y23639D01*
X530549Y23564D01*
X530478Y23487D01*
X530409Y23408D01*
X530343Y23326D01*
X530281Y23241D01*
X530221Y23155D01*
X530165Y23066D01*
X530111Y22975D01*
X530062Y22882D01*
X530015Y22788D01*
X529972Y22692D01*
X529933Y22595D01*
X529897Y22496D01*
X529865Y22395D01*
X529837Y22294D01*
X529812Y22192D01*
X529791Y22089D01*
X529774Y21985D01*
X529760Y21881D01*
X529751Y21776D01*
X529745Y21671D01*
X529743Y21566D01*
X529743Y12930D01*
X519445Y12930D02*
X515607Y12930D01*
X519445Y12930D02*
X519550Y12932D01*
X519655Y12938D01*
X519760Y12947D01*
X519864Y12961D01*
X519968Y12978D01*
X520071Y12999D01*
X520173Y13024D01*
X520274Y13052D01*
X520375Y13084D01*
X520473Y13120D01*
X520571Y13159D01*
X520667Y13202D01*
X520761Y13249D01*
X520854Y13298D01*
X520945Y13352D01*
X521034Y13408D01*
X521120Y13468D01*
X521205Y13530D01*
X521287Y13596D01*
X521366Y13665D01*
X521443Y13736D01*
X521518Y13811D01*
X521589Y13888D01*
X521658Y13967D01*
X521724Y14049D01*
X521786Y14134D01*
X521846Y14220D01*
X521903Y14309D01*
X521956Y14400D01*
X522005Y14493D01*
X522052Y14587D01*
X522095Y14683D01*
X522134Y14781D01*
X522170Y14879D01*
X522202Y14980D01*
X522230Y15081D01*
X522255Y15183D01*
X522276Y15286D01*
X522293Y15390D01*
X522307Y15494D01*
X522316Y15599D01*
X522322Y15704D01*
X522324Y15809D01*
X522323Y15809D02*
X522323Y21566D01*
X522324Y21566D02*
X522322Y21671D01*
X522316Y21776D01*
X522307Y21881D01*
X522293Y21985D01*
X522276Y22089D01*
X522255Y22192D01*
X522230Y22294D01*
X522202Y22395D01*
X522170Y22496D01*
X522134Y22594D01*
X522095Y22692D01*
X522052Y22788D01*
X522005Y22882D01*
X521956Y22975D01*
X521902Y23066D01*
X521846Y23155D01*
X521786Y23241D01*
X521724Y23326D01*
X521658Y23408D01*
X521589Y23487D01*
X521518Y23564D01*
X521443Y23639D01*
X521366Y23710D01*
X521287Y23779D01*
X521205Y23845D01*
X521120Y23907D01*
X521034Y23967D01*
X520945Y24023D01*
X520854Y24077D01*
X520761Y24126D01*
X520667Y24173D01*
X520571Y24216D01*
X520473Y24255D01*
X520375Y24291D01*
X520274Y24323D01*
X520173Y24351D01*
X520071Y24376D01*
X519968Y24397D01*
X519864Y24414D01*
X519760Y24428D01*
X519655Y24437D01*
X519550Y24443D01*
X519445Y24445D01*
X515607Y24445D01*
X508944Y30202D02*
X508944Y12930D01*
X508944Y24445D02*
X504146Y24445D01*
X504041Y24443D01*
X503936Y24437D01*
X503831Y24428D01*
X503727Y24414D01*
X503623Y24397D01*
X503520Y24376D01*
X503418Y24351D01*
X503317Y24323D01*
X503216Y24291D01*
X503118Y24255D01*
X503020Y24216D01*
X502924Y24173D01*
X502830Y24126D01*
X502737Y24077D01*
X502646Y24024D01*
X502557Y23967D01*
X502471Y23907D01*
X502386Y23845D01*
X502304Y23779D01*
X502225Y23710D01*
X502148Y23639D01*
X502073Y23564D01*
X502002Y23487D01*
X501933Y23408D01*
X501867Y23326D01*
X501805Y23241D01*
X501745Y23155D01*
X501689Y23066D01*
X501635Y22975D01*
X501586Y22882D01*
X501539Y22788D01*
X501496Y22692D01*
X501457Y22595D01*
X501421Y22496D01*
X501389Y22395D01*
X501361Y22294D01*
X501336Y22192D01*
X501315Y22089D01*
X501298Y21985D01*
X501284Y21881D01*
X501275Y21776D01*
X501269Y21671D01*
X501267Y21566D01*
X501267Y12930D01*
X493868Y16768D02*
X493868Y20606D01*
X493866Y20729D01*
X493860Y20852D01*
X493850Y20975D01*
X493836Y21097D01*
X493819Y21219D01*
X493797Y21340D01*
X493772Y21460D01*
X493742Y21580D01*
X493709Y21698D01*
X493672Y21815D01*
X493632Y21932D01*
X493588Y22046D01*
X493540Y22160D01*
X493488Y22271D01*
X493433Y22381D01*
X493374Y22489D01*
X493312Y22596D01*
X493247Y22700D01*
X493178Y22802D01*
X493106Y22902D01*
X493031Y22999D01*
X492952Y23094D01*
X492871Y23186D01*
X492787Y23276D01*
X492700Y23363D01*
X492610Y23447D01*
X492518Y23528D01*
X492423Y23607D01*
X492326Y23682D01*
X492226Y23754D01*
X492124Y23823D01*
X492020Y23888D01*
X491913Y23950D01*
X491805Y24009D01*
X491695Y24064D01*
X491584Y24116D01*
X491470Y24164D01*
X491356Y24208D01*
X491239Y24248D01*
X491122Y24285D01*
X491004Y24318D01*
X490884Y24348D01*
X490764Y24373D01*
X490643Y24395D01*
X490521Y24412D01*
X490399Y24426D01*
X490276Y24436D01*
X490153Y24442D01*
X490030Y24444D01*
X489907Y24442D01*
X489784Y24436D01*
X489661Y24426D01*
X489539Y24412D01*
X489417Y24395D01*
X489296Y24373D01*
X489176Y24348D01*
X489056Y24318D01*
X488938Y24285D01*
X488821Y24248D01*
X488704Y24208D01*
X488590Y24164D01*
X488476Y24116D01*
X488365Y24064D01*
X488255Y24009D01*
X488147Y23950D01*
X488040Y23888D01*
X487936Y23823D01*
X487834Y23754D01*
X487734Y23682D01*
X487637Y23607D01*
X487542Y23528D01*
X487450Y23447D01*
X487360Y23363D01*
X487273Y23276D01*
X487189Y23186D01*
X487108Y23094D01*
X487029Y22999D01*
X486954Y22902D01*
X486882Y22802D01*
X486813Y22700D01*
X486748Y22596D01*
X486686Y22489D01*
X486627Y22381D01*
X486572Y22271D01*
X486520Y22160D01*
X486472Y22046D01*
X486428Y21932D01*
X486388Y21815D01*
X486351Y21698D01*
X486318Y21580D01*
X486288Y21460D01*
X486263Y21340D01*
X486241Y21219D01*
X486224Y21097D01*
X486210Y20975D01*
X486200Y20852D01*
X486194Y20729D01*
X486192Y20606D01*
X486192Y16768D01*
X486194Y16645D01*
X486200Y16522D01*
X486210Y16399D01*
X486224Y16277D01*
X486241Y16155D01*
X486263Y16034D01*
X486288Y15914D01*
X486318Y15794D01*
X486351Y15676D01*
X486388Y15559D01*
X486428Y15442D01*
X486472Y15328D01*
X486520Y15214D01*
X486572Y15103D01*
X486627Y14993D01*
X486686Y14885D01*
X486748Y14778D01*
X486813Y14674D01*
X486882Y14572D01*
X486954Y14472D01*
X487029Y14375D01*
X487108Y14280D01*
X487189Y14188D01*
X487273Y14098D01*
X487360Y14011D01*
X487450Y13927D01*
X487542Y13846D01*
X487637Y13767D01*
X487734Y13692D01*
X487834Y13620D01*
X487936Y13551D01*
X488040Y13486D01*
X488147Y13424D01*
X488255Y13365D01*
X488365Y13310D01*
X488476Y13258D01*
X488590Y13210D01*
X488704Y13166D01*
X488821Y13126D01*
X488938Y13089D01*
X489056Y13056D01*
X489176Y13026D01*
X489296Y13001D01*
X489417Y12979D01*
X489539Y12962D01*
X489661Y12948D01*
X489784Y12938D01*
X489907Y12932D01*
X490030Y12930D01*
X490153Y12932D01*
X490276Y12938D01*
X490399Y12948D01*
X490521Y12962D01*
X490643Y12979D01*
X490764Y13001D01*
X490884Y13026D01*
X491004Y13056D01*
X491122Y13089D01*
X491239Y13126D01*
X491356Y13166D01*
X491470Y13210D01*
X491584Y13258D01*
X491695Y13310D01*
X491805Y13365D01*
X491913Y13424D01*
X492020Y13486D01*
X492124Y13551D01*
X492226Y13620D01*
X492326Y13692D01*
X492423Y13767D01*
X492518Y13846D01*
X492610Y13927D01*
X492700Y14011D01*
X492787Y14098D01*
X492871Y14188D01*
X492952Y14280D01*
X493031Y14375D01*
X493106Y14472D01*
X493178Y14572D01*
X493247Y14674D01*
X493312Y14778D01*
X493374Y14885D01*
X493433Y14993D01*
X493488Y15103D01*
X493540Y15214D01*
X493588Y15328D01*
X493632Y15442D01*
X493672Y15559D01*
X493709Y15676D01*
X493742Y15794D01*
X493772Y15914D01*
X493797Y16034D01*
X493819Y16155D01*
X493836Y16277D01*
X493850Y16399D01*
X493860Y16522D01*
X493866Y16645D01*
X493868Y16768D01*
X478793Y15809D02*
X478793Y24445D01*
X478793Y15809D02*
X478791Y15704D01*
X478785Y15599D01*
X478776Y15494D01*
X478762Y15390D01*
X478745Y15286D01*
X478724Y15183D01*
X478699Y15081D01*
X478671Y14980D01*
X478639Y14879D01*
X478603Y14781D01*
X478564Y14683D01*
X478521Y14587D01*
X478474Y14493D01*
X478425Y14400D01*
X478372Y14309D01*
X478315Y14220D01*
X478255Y14134D01*
X478193Y14049D01*
X478127Y13967D01*
X478058Y13888D01*
X477987Y13811D01*
X477912Y13736D01*
X477835Y13665D01*
X477756Y13596D01*
X477674Y13530D01*
X477589Y13468D01*
X477503Y13408D01*
X477414Y13352D01*
X477323Y13298D01*
X477230Y13249D01*
X477136Y13202D01*
X477040Y13159D01*
X476942Y13120D01*
X476844Y13084D01*
X476743Y13052D01*
X476642Y13024D01*
X476540Y12999D01*
X476437Y12978D01*
X476333Y12961D01*
X476229Y12947D01*
X476124Y12938D01*
X476019Y12932D01*
X475914Y12930D01*
X471116Y12930D01*
X471116Y24445D01*
X456124Y30202D02*
X456124Y12930D01*
X460922Y12930D01*
X461027Y12932D01*
X461132Y12938D01*
X461237Y12947D01*
X461341Y12961D01*
X461445Y12978D01*
X461548Y12999D01*
X461650Y13024D01*
X461751Y13052D01*
X461852Y13084D01*
X461950Y13120D01*
X462048Y13159D01*
X462144Y13202D01*
X462238Y13249D01*
X462331Y13298D01*
X462422Y13352D01*
X462511Y13408D01*
X462597Y13468D01*
X462682Y13530D01*
X462764Y13596D01*
X462843Y13665D01*
X462920Y13736D01*
X462995Y13811D01*
X463066Y13888D01*
X463135Y13967D01*
X463201Y14049D01*
X463263Y14134D01*
X463323Y14220D01*
X463380Y14309D01*
X463433Y14400D01*
X463482Y14493D01*
X463529Y14587D01*
X463572Y14683D01*
X463611Y14781D01*
X463647Y14879D01*
X463679Y14980D01*
X463707Y15081D01*
X463732Y15183D01*
X463753Y15286D01*
X463770Y15390D01*
X463784Y15494D01*
X463793Y15599D01*
X463799Y15704D01*
X463801Y15809D01*
X463801Y21566D01*
X463799Y21671D01*
X463793Y21776D01*
X463784Y21881D01*
X463770Y21985D01*
X463753Y22089D01*
X463732Y22192D01*
X463707Y22294D01*
X463679Y22395D01*
X463647Y22496D01*
X463611Y22594D01*
X463572Y22692D01*
X463529Y22788D01*
X463482Y22882D01*
X463433Y22975D01*
X463379Y23066D01*
X463323Y23155D01*
X463263Y23241D01*
X463201Y23326D01*
X463135Y23408D01*
X463066Y23487D01*
X462995Y23564D01*
X462920Y23639D01*
X462843Y23710D01*
X462764Y23779D01*
X462682Y23845D01*
X462597Y23907D01*
X462511Y23967D01*
X462422Y24023D01*
X462331Y24077D01*
X462238Y24126D01*
X462144Y24173D01*
X462048Y24216D01*
X461950Y24255D01*
X461852Y24291D01*
X461751Y24323D01*
X461650Y24351D01*
X461548Y24376D01*
X461445Y24397D01*
X461341Y24414D01*
X461237Y24428D01*
X461132Y24437D01*
X461027Y24443D01*
X460922Y24445D01*
X456124Y24445D01*
X448084Y30202D02*
X448084Y12930D01*
X448084Y24445D02*
X443286Y24445D01*
X443181Y24443D01*
X443076Y24437D01*
X442971Y24428D01*
X442867Y24414D01*
X442763Y24397D01*
X442660Y24376D01*
X442558Y24351D01*
X442457Y24323D01*
X442356Y24291D01*
X442258Y24255D01*
X442160Y24216D01*
X442064Y24173D01*
X441970Y24126D01*
X441877Y24077D01*
X441786Y24024D01*
X441697Y23967D01*
X441611Y23907D01*
X441526Y23845D01*
X441444Y23779D01*
X441365Y23710D01*
X441288Y23639D01*
X441213Y23564D01*
X441142Y23487D01*
X441073Y23408D01*
X441007Y23326D01*
X440945Y23241D01*
X440885Y23155D01*
X440829Y23066D01*
X440775Y22975D01*
X440726Y22882D01*
X440679Y22788D01*
X440636Y22692D01*
X440597Y22595D01*
X440561Y22496D01*
X440529Y22395D01*
X440501Y22294D01*
X440476Y22192D01*
X440455Y22089D01*
X440438Y21985D01*
X440424Y21881D01*
X440415Y21776D01*
X440409Y21671D01*
X440407Y21566D01*
X440407Y12930D01*
X432450Y15809D02*
X432450Y24445D01*
X432450Y15809D02*
X432448Y15704D01*
X432442Y15599D01*
X432433Y15494D01*
X432419Y15390D01*
X432402Y15286D01*
X432381Y15183D01*
X432356Y15081D01*
X432328Y14980D01*
X432296Y14879D01*
X432260Y14781D01*
X432221Y14683D01*
X432178Y14587D01*
X432131Y14493D01*
X432082Y14400D01*
X432029Y14309D01*
X431972Y14220D01*
X431912Y14134D01*
X431850Y14049D01*
X431784Y13967D01*
X431715Y13888D01*
X431644Y13811D01*
X431569Y13736D01*
X431492Y13665D01*
X431413Y13596D01*
X431331Y13530D01*
X431246Y13468D01*
X431160Y13408D01*
X431071Y13352D01*
X430980Y13298D01*
X430887Y13249D01*
X430793Y13202D01*
X430697Y13159D01*
X430599Y13120D01*
X430501Y13084D01*
X430400Y13052D01*
X430299Y13024D01*
X430197Y12999D01*
X430094Y12978D01*
X429990Y12961D01*
X429886Y12947D01*
X429781Y12938D01*
X429676Y12932D01*
X429571Y12930D01*
X424774Y12930D01*
X424774Y24445D01*
X416718Y24445D02*
X416718Y12930D01*
X416718Y24445D02*
X410961Y24445D01*
X410961Y22526D01*
X405720Y24445D02*
X405720Y12930D01*
X406199Y29242D02*
X406199Y30202D01*
X405240Y30202D01*
X405240Y29242D01*
X406199Y29242D01*
X399499Y13890D02*
X399499Y12930D01*
X399499Y13890D02*
X398540Y13890D01*
X398540Y12930D01*
X399499Y12930D01*
X389350Y12930D02*
X385511Y12930D01*
X389350Y12930D02*
X389455Y12932D01*
X389560Y12938D01*
X389665Y12947D01*
X389769Y12961D01*
X389873Y12978D01*
X389976Y12999D01*
X390078Y13024D01*
X390179Y13052D01*
X390280Y13084D01*
X390378Y13120D01*
X390476Y13159D01*
X390572Y13202D01*
X390666Y13249D01*
X390759Y13298D01*
X390850Y13352D01*
X390939Y13408D01*
X391025Y13468D01*
X391110Y13530D01*
X391192Y13596D01*
X391271Y13665D01*
X391348Y13736D01*
X391423Y13811D01*
X391494Y13888D01*
X391563Y13967D01*
X391629Y14049D01*
X391691Y14134D01*
X391751Y14220D01*
X391808Y14309D01*
X391861Y14400D01*
X391910Y14493D01*
X391957Y14587D01*
X392000Y14683D01*
X392039Y14781D01*
X392075Y14879D01*
X392107Y14980D01*
X392135Y15081D01*
X392160Y15183D01*
X392181Y15286D01*
X392198Y15390D01*
X392212Y15494D01*
X392221Y15599D01*
X392227Y15704D01*
X392229Y15809D01*
X392228Y15809D02*
X392228Y21566D01*
X392229Y21566D02*
X392227Y21671D01*
X392221Y21776D01*
X392212Y21881D01*
X392198Y21985D01*
X392181Y22089D01*
X392160Y22192D01*
X392135Y22294D01*
X392107Y22395D01*
X392075Y22496D01*
X392039Y22594D01*
X392000Y22692D01*
X391957Y22788D01*
X391910Y22882D01*
X391861Y22975D01*
X391807Y23066D01*
X391751Y23155D01*
X391691Y23241D01*
X391629Y23326D01*
X391563Y23408D01*
X391494Y23487D01*
X391423Y23564D01*
X391348Y23639D01*
X391271Y23710D01*
X391192Y23779D01*
X391110Y23845D01*
X391025Y23907D01*
X390939Y23967D01*
X390850Y24023D01*
X390759Y24077D01*
X390666Y24126D01*
X390572Y24173D01*
X390476Y24216D01*
X390378Y24255D01*
X390280Y24291D01*
X390179Y24323D01*
X390078Y24351D01*
X389976Y24376D01*
X389873Y24397D01*
X389769Y24414D01*
X389665Y24428D01*
X389560Y24437D01*
X389455Y24443D01*
X389350Y24445D01*
X385511Y24445D01*
X379407Y20606D02*
X379407Y16768D01*
X379407Y20606D02*
X379405Y20729D01*
X379399Y20852D01*
X379389Y20975D01*
X379375Y21097D01*
X379358Y21219D01*
X379336Y21340D01*
X379311Y21460D01*
X379281Y21580D01*
X379248Y21698D01*
X379211Y21815D01*
X379171Y21932D01*
X379127Y22046D01*
X379079Y22160D01*
X379027Y22271D01*
X378972Y22381D01*
X378913Y22489D01*
X378851Y22596D01*
X378786Y22700D01*
X378717Y22802D01*
X378645Y22902D01*
X378570Y22999D01*
X378491Y23094D01*
X378410Y23186D01*
X378326Y23276D01*
X378239Y23363D01*
X378149Y23447D01*
X378057Y23528D01*
X377962Y23607D01*
X377865Y23682D01*
X377765Y23754D01*
X377663Y23823D01*
X377559Y23888D01*
X377452Y23950D01*
X377344Y24009D01*
X377234Y24064D01*
X377123Y24116D01*
X377009Y24164D01*
X376895Y24208D01*
X376778Y24248D01*
X376661Y24285D01*
X376543Y24318D01*
X376423Y24348D01*
X376303Y24373D01*
X376182Y24395D01*
X376060Y24412D01*
X375938Y24426D01*
X375815Y24436D01*
X375692Y24442D01*
X375569Y24444D01*
X375446Y24442D01*
X375323Y24436D01*
X375200Y24426D01*
X375078Y24412D01*
X374956Y24395D01*
X374835Y24373D01*
X374715Y24348D01*
X374595Y24318D01*
X374477Y24285D01*
X374360Y24248D01*
X374243Y24208D01*
X374129Y24164D01*
X374015Y24116D01*
X373904Y24064D01*
X373794Y24009D01*
X373686Y23950D01*
X373579Y23888D01*
X373475Y23823D01*
X373373Y23754D01*
X373273Y23682D01*
X373176Y23607D01*
X373081Y23528D01*
X372989Y23447D01*
X372899Y23363D01*
X372812Y23276D01*
X372728Y23186D01*
X372647Y23094D01*
X372568Y22999D01*
X372493Y22902D01*
X372421Y22802D01*
X372352Y22700D01*
X372287Y22596D01*
X372225Y22489D01*
X372166Y22381D01*
X372111Y22271D01*
X372059Y22160D01*
X372011Y22046D01*
X371967Y21932D01*
X371927Y21815D01*
X371890Y21698D01*
X371857Y21580D01*
X371827Y21460D01*
X371802Y21340D01*
X371780Y21219D01*
X371763Y21097D01*
X371749Y20975D01*
X371739Y20852D01*
X371733Y20729D01*
X371731Y20606D01*
X371731Y16768D01*
X371733Y16645D01*
X371739Y16522D01*
X371749Y16399D01*
X371763Y16277D01*
X371780Y16155D01*
X371802Y16034D01*
X371827Y15914D01*
X371857Y15794D01*
X371890Y15676D01*
X371927Y15559D01*
X371967Y15442D01*
X372011Y15328D01*
X372059Y15214D01*
X372111Y15103D01*
X372166Y14993D01*
X372225Y14885D01*
X372287Y14778D01*
X372352Y14674D01*
X372421Y14572D01*
X372493Y14472D01*
X372568Y14375D01*
X372647Y14280D01*
X372728Y14188D01*
X372812Y14098D01*
X372899Y14011D01*
X372989Y13927D01*
X373081Y13846D01*
X373176Y13767D01*
X373273Y13692D01*
X373373Y13620D01*
X373475Y13551D01*
X373579Y13486D01*
X373686Y13424D01*
X373794Y13365D01*
X373904Y13310D01*
X374015Y13258D01*
X374129Y13210D01*
X374243Y13166D01*
X374360Y13126D01*
X374477Y13089D01*
X374595Y13056D01*
X374715Y13026D01*
X374835Y13001D01*
X374956Y12979D01*
X375078Y12962D01*
X375200Y12948D01*
X375323Y12938D01*
X375446Y12932D01*
X375569Y12930D01*
X375692Y12932D01*
X375815Y12938D01*
X375938Y12948D01*
X376060Y12962D01*
X376182Y12979D01*
X376303Y13001D01*
X376423Y13026D01*
X376543Y13056D01*
X376661Y13089D01*
X376778Y13126D01*
X376895Y13166D01*
X377009Y13210D01*
X377123Y13258D01*
X377234Y13310D01*
X377344Y13365D01*
X377452Y13424D01*
X377559Y13486D01*
X377663Y13551D01*
X377765Y13620D01*
X377865Y13692D01*
X377962Y13767D01*
X378057Y13846D01*
X378149Y13927D01*
X378239Y14011D01*
X378326Y14098D01*
X378410Y14188D01*
X378491Y14280D01*
X378570Y14375D01*
X378645Y14472D01*
X378717Y14572D01*
X378786Y14674D01*
X378851Y14778D01*
X378913Y14885D01*
X378972Y14993D01*
X379027Y15103D01*
X379079Y15214D01*
X379127Y15328D01*
X379171Y15442D01*
X379211Y15559D01*
X379248Y15676D01*
X379281Y15794D01*
X379311Y15914D01*
X379336Y16034D01*
X379358Y16155D01*
X379375Y16277D01*
X379389Y16399D01*
X379399Y16522D01*
X379405Y16645D01*
X379407Y16768D01*
X364017Y12930D02*
X364017Y24445D01*
X355381Y24445D01*
X355276Y24443D01*
X355171Y24437D01*
X355066Y24428D01*
X354962Y24414D01*
X354858Y24397D01*
X354755Y24376D01*
X354653Y24351D01*
X354552Y24323D01*
X354451Y24291D01*
X354353Y24255D01*
X354255Y24216D01*
X354159Y24173D01*
X354065Y24126D01*
X353972Y24077D01*
X353881Y24024D01*
X353792Y23967D01*
X353706Y23907D01*
X353621Y23845D01*
X353539Y23779D01*
X353460Y23710D01*
X353383Y23639D01*
X353308Y23564D01*
X353237Y23487D01*
X353168Y23408D01*
X353102Y23326D01*
X353040Y23241D01*
X352980Y23155D01*
X352924Y23066D01*
X352870Y22975D01*
X352821Y22882D01*
X352774Y22788D01*
X352731Y22692D01*
X352692Y22594D01*
X352656Y22496D01*
X352624Y22395D01*
X352596Y22294D01*
X352571Y22192D01*
X352550Y22089D01*
X352533Y21985D01*
X352519Y21881D01*
X352510Y21776D01*
X352504Y21671D01*
X352502Y21566D01*
X352503Y21566D02*
X352503Y12930D01*
X358260Y12930D02*
X358260Y24445D01*
M02*
