G04 EAGLE Gerber RS-274X export*
G75*
%MOMM*%
%FSLAX34Y34*%
%LPD*%
%INSoldermask Bottom*%
%IPPOS*%
%AMOC8*
5,1,8,0,0,1.08239X$1,22.5*%
G01*
%ADD10C,3.203200*%
%ADD11C,1.611200*%
%ADD12C,1.879600*%
%ADD13R,1.879600X1.879600*%
%ADD14C,1.727200*%
%ADD15C,1.524000*%
%ADD16C,1.625600*%
%ADD17R,1.625600X1.625600*%
%ADD18C,1.993900*%
%ADD19P,1.951982X8X112.500000*%
%ADD20C,1.803400*%
%ADD21P,1.951766X8X112.500000*%
%ADD22P,2.144431X8X22.500000*%
%ADD23R,1.981200X1.981200*%
%ADD24C,1.059600*%
%ADD25C,1.803200*%


D10*
X820000Y925000D03*
X580000Y410000D03*
X900000Y100000D03*
X100000Y100000D03*
X160000Y925000D03*
D11*
X416760Y466000D02*
X430840Y466000D01*
X569160Y897800D02*
X583240Y897800D01*
X430840Y516800D02*
X416760Y516800D01*
X416760Y491400D02*
X430840Y491400D01*
X569160Y923200D02*
X583240Y923200D01*
X583240Y948600D02*
X569160Y948600D01*
X569160Y567600D02*
X583240Y567600D01*
X583240Y593000D02*
X569160Y593000D01*
X569160Y618400D02*
X583240Y618400D01*
X583240Y643800D02*
X569160Y643800D01*
X569160Y669200D02*
X583240Y669200D01*
X583240Y694600D02*
X569160Y694600D01*
X569160Y720000D02*
X583240Y720000D01*
X583240Y745400D02*
X569160Y745400D01*
X430840Y847000D02*
X416760Y847000D01*
X416760Y821600D02*
X430840Y821600D01*
X430840Y796200D02*
X416760Y796200D01*
X416760Y770800D02*
X430840Y770800D01*
X430840Y745400D02*
X416760Y745400D01*
X416760Y720000D02*
X430840Y720000D01*
X569160Y770800D02*
X583240Y770800D01*
X583240Y796200D02*
X569160Y796200D01*
X430840Y694600D02*
X416760Y694600D01*
X416760Y669200D02*
X430840Y669200D01*
X430840Y643800D02*
X416760Y643800D01*
X416760Y618400D02*
X430840Y618400D01*
X430840Y593000D02*
X416760Y593000D01*
X416760Y567600D02*
X430840Y567600D01*
X430840Y542200D02*
X416760Y542200D01*
X569160Y821600D02*
X583240Y821600D01*
X583240Y847000D02*
X569160Y847000D01*
X430840Y948600D02*
X416760Y948600D01*
X416760Y923200D02*
X430840Y923200D01*
X430840Y897800D02*
X416760Y897800D01*
X416760Y872400D02*
X430840Y872400D01*
X569160Y491400D02*
X583240Y491400D01*
X583240Y516800D02*
X569160Y516800D01*
X569160Y542200D02*
X583240Y542200D01*
X583240Y872400D02*
X569160Y872400D01*
X569160Y466000D02*
X583240Y466000D01*
D12*
X696500Y762700D03*
X823500Y762700D03*
X696500Y737300D03*
X696500Y711900D03*
X696500Y686500D03*
X696500Y661100D03*
X696500Y788100D03*
X696500Y813500D03*
D13*
X696500Y838900D03*
D12*
X823500Y788100D03*
X823500Y813500D03*
X823500Y838900D03*
X823500Y737300D03*
X823500Y711900D03*
X823500Y686500D03*
X823500Y661100D03*
X696500Y512700D03*
X823500Y512700D03*
X696500Y487300D03*
X696500Y461900D03*
X696500Y436500D03*
X696500Y411100D03*
X696500Y538100D03*
X696500Y563500D03*
D13*
X696500Y588900D03*
D12*
X823500Y538100D03*
X823500Y563500D03*
X823500Y588900D03*
X823500Y487300D03*
X823500Y461900D03*
X823500Y436500D03*
X823500Y411100D03*
X696500Y262700D03*
X823500Y262700D03*
X696500Y237300D03*
X696500Y211900D03*
X696500Y186500D03*
X696500Y161100D03*
X696500Y288100D03*
X696500Y313500D03*
D13*
X696500Y338900D03*
D12*
X823500Y288100D03*
X823500Y313500D03*
X823500Y338900D03*
X823500Y237300D03*
X823500Y211900D03*
X823500Y186500D03*
X823500Y161100D03*
X303500Y237300D03*
X176500Y237300D03*
X303500Y262700D03*
X303500Y288100D03*
X303500Y313500D03*
X303500Y338900D03*
X303500Y211900D03*
X303500Y186500D03*
D13*
X303500Y161100D03*
D12*
X176500Y211900D03*
X176500Y186500D03*
X176500Y161100D03*
X176500Y262700D03*
X176500Y288100D03*
X176500Y313500D03*
X176500Y338900D03*
X303500Y487300D03*
X176500Y487300D03*
X303500Y512700D03*
X303500Y538100D03*
X303500Y563500D03*
X303500Y588900D03*
X303500Y461900D03*
X303500Y436500D03*
D13*
X303500Y411100D03*
D12*
X176500Y461900D03*
X176500Y436500D03*
X176500Y411100D03*
X176500Y512700D03*
X176500Y538100D03*
X176500Y563500D03*
X176500Y588900D03*
X303500Y737300D03*
X176500Y737300D03*
X303500Y762700D03*
X303500Y788100D03*
X303500Y813500D03*
X303500Y838900D03*
X303500Y711900D03*
X303500Y686500D03*
D13*
X303500Y661100D03*
D12*
X176500Y711900D03*
X176500Y686500D03*
X176500Y661100D03*
X176500Y762700D03*
X176500Y788100D03*
X176500Y813500D03*
X176500Y838900D03*
D14*
X912380Y722700D02*
X927620Y722700D01*
X927620Y697300D02*
X912380Y697300D01*
X912380Y671900D02*
X927620Y671900D01*
X927620Y748100D02*
X912380Y748100D01*
X912380Y472700D02*
X927620Y472700D01*
X927620Y447300D02*
X912380Y447300D01*
X912380Y421900D02*
X927620Y421900D01*
X927620Y498100D02*
X912380Y498100D01*
X912380Y222700D02*
X927620Y222700D01*
X927620Y197300D02*
X912380Y197300D01*
X912380Y171900D02*
X927620Y171900D01*
X927620Y248100D02*
X912380Y248100D01*
X87620Y197300D02*
X72380Y197300D01*
X72380Y222700D02*
X87620Y222700D01*
X87620Y248100D02*
X72380Y248100D01*
X72380Y171900D02*
X87620Y171900D01*
X87620Y447300D02*
X72380Y447300D01*
X72380Y472700D02*
X87620Y472700D01*
X87620Y498100D02*
X72380Y498100D01*
X72380Y421900D02*
X87620Y421900D01*
X87620Y697300D02*
X72380Y697300D01*
X72380Y722700D02*
X87620Y722700D01*
X87620Y748100D02*
X72380Y748100D01*
X72380Y671900D02*
X87620Y671900D01*
D15*
X275400Y951496D02*
X275400Y964704D01*
X250000Y964704D02*
X250000Y951496D01*
X224600Y951496D02*
X224600Y964704D01*
X224600Y888504D02*
X224600Y875296D01*
X275400Y875296D02*
X275400Y888504D01*
X250000Y888504D02*
X250000Y875296D01*
D16*
X563490Y367300D03*
X538090Y367300D03*
X512690Y367300D03*
X487290Y367300D03*
X461890Y367300D03*
D17*
X436490Y367300D03*
X577000Y341600D03*
D16*
X577000Y316200D03*
X577000Y290800D03*
X577000Y265400D03*
X577000Y240000D03*
X577000Y214600D03*
X577000Y189200D03*
X577000Y163800D03*
X577000Y138400D03*
D17*
X423000Y138400D03*
D16*
X423000Y163800D03*
X423000Y189200D03*
X423000Y214600D03*
X423000Y240000D03*
X423000Y265400D03*
X423000Y290800D03*
X423000Y316200D03*
X423000Y341600D03*
D14*
X87620Y822300D02*
X72380Y822300D01*
X72380Y847700D02*
X87620Y847700D01*
X87620Y572300D02*
X72380Y572300D01*
X72380Y597700D02*
X87620Y597700D01*
X87620Y322300D02*
X72380Y322300D01*
X72380Y347700D02*
X87620Y347700D01*
X912380Y847700D02*
X927620Y847700D01*
X927620Y822300D02*
X912380Y822300D01*
X912380Y597700D02*
X927620Y597700D01*
X927620Y572300D02*
X912380Y572300D01*
X912380Y347700D02*
X927620Y347700D01*
X927620Y322300D02*
X912380Y322300D01*
X212700Y82620D02*
X212700Y67380D01*
X187300Y67380D02*
X187300Y82620D01*
X161900Y82620D02*
X161900Y67380D01*
X238100Y67380D02*
X238100Y82620D01*
D18*
X745000Y923747D02*
X745000Y941654D01*
X695000Y941654D02*
X695000Y923747D01*
D19*
X910000Y952780D03*
D20*
X910000Y917220D03*
D21*
X663500Y24000D03*
X663500Y116000D03*
X816500Y24000D03*
X816500Y116000D03*
D22*
X630000Y923200D03*
D23*
X630000Y948600D03*
D22*
X630000Y897800D03*
X630000Y872400D03*
X630000Y847000D03*
X630000Y821600D03*
X630000Y796200D03*
X630000Y770800D03*
X630000Y745400D03*
X630000Y720000D03*
X630000Y694600D03*
X630000Y669200D03*
X630000Y643800D03*
X630000Y618400D03*
X630000Y593000D03*
X630000Y567600D03*
X630000Y542200D03*
X630000Y516800D03*
X630000Y491400D03*
X630000Y466000D03*
X370000Y923200D03*
D23*
X370000Y948600D03*
D22*
X370000Y897800D03*
X370000Y872400D03*
X370000Y847000D03*
X370000Y821600D03*
X370000Y796200D03*
X370000Y770800D03*
X370000Y745400D03*
X370000Y720000D03*
X370000Y694600D03*
X370000Y669200D03*
X370000Y643800D03*
X370000Y618400D03*
X370000Y593000D03*
X370000Y567600D03*
X370000Y542200D03*
X370000Y516800D03*
X370000Y491400D03*
X370000Y466000D03*
D24*
X960000Y40000D03*
X40000Y40000D03*
X500000Y700000D03*
X295000Y100000D03*
X335000Y60000D03*
X700000Y60000D03*
X305000Y110000D03*
X345000Y70000D03*
X745000Y740000D03*
X745000Y490000D03*
X745000Y240000D03*
X255000Y260000D03*
X255000Y510000D03*
X255000Y760000D03*
D25*
X930000Y45000D03*
X80000Y35000D03*
X30000Y140000D03*
X30000Y390000D03*
X970000Y270000D03*
X970000Y520000D03*
X970000Y770000D03*
D24*
X335000Y140000D03*
X375000Y100000D03*
X325000Y130000D03*
X365000Y90000D03*
X725000Y790000D03*
X725000Y540000D03*
X725000Y290000D03*
X275000Y710000D03*
X275000Y460000D03*
X275000Y210000D03*
X315000Y120000D03*
X355000Y80000D03*
X735000Y760000D03*
X735000Y510000D03*
X735000Y260000D03*
X265000Y240000D03*
X265000Y490000D03*
X265000Y740000D03*
X645000Y809000D03*
X695000Y630000D03*
X675000Y630000D03*
X305000Y380000D03*
X325000Y380000D03*
M02*
