M48
;GenerationSoftware,Autodesk,EAGLE,9.6.2*%
;CreationDate,2021-06-28T17:17:03Z*%
FMAT,2
ICI,OFF
METRIC,TZ,000.000
T7C0.450
T6C0.800
T5C0.813
T4C0.900
T3C1.016
T2C1.194
T1C3.000
%
G90
M71
T1
X82000Y92500
X90000Y10000
X58000Y41000
X10000Y10000
X16000Y92500
T2
X69500Y93270
X74500Y93270
T3
X92000Y22270
X92000Y49810
X92000Y42190
X92000Y44730
X92000Y47270
X92000Y67190
X92000Y69730
X92000Y72270
X8000Y42190
X92000Y74810
X92000Y17190
X92000Y24810
X8000Y19730
X8000Y22270
X8000Y24810
X8000Y17190
X8000Y44730
X8000Y47270
X8000Y49810
X8000Y69730
X8000Y72270
X8000Y74810
X8000Y67190
X8000Y82230
X8000Y84770
X8000Y57230
X8000Y59770
X8000Y32230
X8000Y34770
X92000Y19730
X92000Y82230
X92000Y59770
X92000Y57230
X92000Y34770
X92000Y84770
X21270Y7500
X18730Y7500
X16190Y7500
X23810Y7500
X92000Y32230
T4
X30350Y48730
X30350Y81350
X42380Y46600
X57620Y89780
X42380Y51680
X42380Y49140
X57620Y92320
X57620Y94860
X57620Y56760
X57620Y59300
X57620Y61840
X57620Y64380
X57620Y66920
X57620Y69460
X57620Y72000
X57620Y74540
X42380Y84700
X42380Y82160
X42380Y79620
X42380Y77080
X42380Y74540
X42380Y72000
X57620Y77080
X57620Y79620
X42380Y69460
X42380Y66920
X42380Y64380
X17650Y33890
X42380Y59300
X42380Y56760
X42380Y54220
X57620Y82160
X57620Y84700
X42380Y94860
X42380Y92320
X42380Y89780
X42380Y87240
X57620Y49140
X57620Y51680
X57620Y54220
X57620Y87240
X57620Y46600
X69650Y76270
X82350Y76270
X42380Y61840
X69650Y71190
X69650Y68650
X69650Y66110
X69650Y78810
X69650Y81350
X69650Y83890
X82350Y78810
X82350Y81350
X82350Y83890
X82350Y73730
X82350Y71190
X82350Y68650
X82350Y66110
X69650Y51270
X82350Y51270
X69650Y48730
X69650Y46190
X69650Y43650
X69650Y41110
X69650Y53810
X69650Y56350
X69650Y58890
X17650Y31350
X82350Y56350
X82350Y58890
X82350Y48730
X82350Y46190
X82350Y43650
X82350Y41110
X69650Y26270
X82350Y26270
X69650Y23730
X69650Y21190
X69650Y18650
X69650Y16110
X69650Y28810
X69650Y31350
X69650Y33890
X82350Y28810
X82350Y31350
X82350Y33890
X82350Y23730
X82350Y21190
X82350Y18650
X82350Y16110
X30350Y23730
X17650Y83890
X30350Y26270
X30350Y28810
X30350Y31350
X30350Y33890
X30350Y21190
X30350Y18650
X30350Y16110
X17650Y21190
X17650Y18650
X17650Y16110
X17650Y26270
X17650Y28810
X17650Y81350
X17650Y78810
X17650Y76270
X17650Y66110
X17650Y68650
X17650Y71190
X30350Y66110
X30350Y68650
X30350Y71190
X69650Y73730
X30350Y83890
X30350Y78810
X30350Y76270
X17650Y73730
X30350Y73730
X17650Y58890
X17650Y56350
X17650Y53810
X17650Y51270
X17650Y41110
X17650Y43650
X17650Y46190
X30350Y41110
X30350Y43650
X30350Y46190
X82350Y53810
X30350Y58890
X30350Y56350
X30350Y53810
X30350Y51270
X17650Y48730
X17650Y23730
T5
X25000Y95810
X22460Y95810
X22460Y88190
X27540Y88190
X25000Y88190
X63000Y89780
X37000Y46600
X27540Y95810
X91000Y95278
X91000Y91722
X63000Y92320
X63000Y94860
X63000Y87240
X63000Y84700
X63000Y82160
X63000Y79620
X63000Y77080
X63000Y74540
X63000Y72000
X63000Y69460
X63000Y66920
X63000Y64380
X63000Y61840
X63000Y59300
X63000Y56760
X63000Y54220
X63000Y51680
X63000Y49140
X63000Y46600
X37000Y92320
X37000Y94860
X37000Y89780
X37000Y87240
X37000Y84700
X37000Y82160
X37000Y79620
X37000Y77080
X37000Y74540
X37000Y72000
X37000Y69460
X37000Y66920
X37000Y64380
X37000Y61840
X37000Y59300
X37000Y56760
X37000Y54220
X37000Y51680
X37000Y49140
T6
X42300Y16380
X42300Y18920
X42300Y21460
X42300Y24000
X42300Y26540
X42300Y29080
X42300Y31620
X42300Y34160
X66350Y2400
X57700Y16380
X97000Y77000
X97000Y52000
X97000Y27000
X3000Y39000
X3000Y14000
X8000Y3500
X93000Y4500
X66350Y11600
X81650Y2400
X81650Y11600
X57700Y31620
X56349Y36730
X53809Y36730
X51269Y36730
X48729Y36730
X46189Y36730
X43649Y36730
X57700Y34160
X57700Y29080
X57700Y26540
X57700Y24000
X57700Y21460
X57700Y18920
X57700Y13840
X42300Y13840
T7
X26500Y49000
X33500Y14000
X30500Y38000
X67500Y63000
X69500Y63000
X64500Y80900
X26500Y74000
X26500Y24000
X73500Y26000
X73500Y51000
X73500Y76000
X35500Y8000
X31500Y12000
X27500Y21000
X27500Y46000
X27500Y71000
X72500Y29000
X72500Y54000
X37500Y10000
X36500Y9000
X25500Y76000
X25500Y51000
X25500Y26000
X74500Y24000
X74500Y49000
X74500Y74000
X34500Y7000
X32500Y38000
X30500Y11000
X70000Y6000
X33500Y6000
X29500Y10000
X50000Y70000
X32500Y13000
X4000Y4000
X96000Y4000
X72500Y79000
M30